<svg width="24.000000" height="24.000000" viewBox="0 0 24 24" fill="none" xmlns="http://www.w3.org/2000/svg" xmlns:xlink="http://www.w3.org/1999/xlink">
	<desc>
			Created with Pixso.
	</desc>
	<defs>
		<clipPath id="clip25_6704">
			<rect id="ic_public_equity" width="24.000000" height="24.000000" fill="white" fill-opacity="0"/>
		</clipPath>
	</defs>
	<g clip-path="url(#clip25_6704)">
		<path id="path5" d="M7.85 3C9.49 3 10.89 3.62 12.04 4.75C13.18 3.62 14.58 3 16.22 3C19.45 3 22.08 5.62 22.08 8.87C22.07 11.61 20.34 13.8 18.06 16.16C16.66 17.62 14.83 19.17 12.57 20.82C12.25 21.05 11.82 21.05 11.5 20.82C9.24 19.18 7.41 17.62 6.01 16.16C3.74 13.8 2 11.61 2 8.85C2 5.62 4.62 3 7.85 3Z" fill="#8AC220" fill-opacity="1.000000" fill-rule="evenodd"/>
	</g>
</svg>
