<svg width="24.000000" height="24.000000" viewBox="0 0 24 24" fill="none" xmlns="http://www.w3.org/2000/svg" xmlns:xlink="http://www.w3.org/1999/xlink">
	<desc>
			Created with Pixso.
	</desc>
	<defs>
		<clipPath id="clip25_6711">
			<rect id="icon_自助积分" width="24.000000" height="24.000000" fill="white" fill-opacity="0"/>
		</clipPath>
	</defs>
	<g clip-path="url(#clip25_6711)">
		<g opacity="0.000000">
			<rect id="rect" width="24.000000" height="24.000000" fill="#000000" fill-opacity="1.000000"/>
		</g>
		<path id="path" d="M2.88 5.18L2.09 19.82C2.07 20.22 2.16 20.59 2.36 20.93C2.56 21.26 2.83 21.52 3.19 21.72C3.54 21.91 3.92 22.01 4.32 22.01L19.8 22.01C20.2 22.01 20.56 21.9 20.89 21.68C21.21 21.46 21.47 21.18 21.66 20.83C21.84 20.47 21.93 20.1 21.91 19.7L21.1 5.18L2.88 5.18Z" fill="#8AC220" fill-opacity="1.000000" fill-rule="nonzero"/>
		<path id="path" d="M6.23 1.99C5.66 1.99 5.12 2.13 4.61 2.42C4.11 2.71 3.7 3.1 3.39 3.59C3.08 4.07 2.91 4.6 2.87 5.18L21.09 5.18C21.06 4.6 20.89 4.07 20.58 3.59C20.28 3.1 19.88 2.71 19.37 2.42C18.87 2.13 18.33 1.99 17.75 1.99L6.23 1.99Z" fill="#BADB7C" fill-opacity="1.000000" fill-rule="nonzero"/>
		<path id="path" d="M12 13.5C11.03 13.5 10.15 13.27 9.33 12.79C8.51 12.33 7.87 11.68 7.39 10.87C6.93 10.05 6.69 9.16 6.69 8.2C6.69 8 6.76 7.82 6.9 7.68C7.05 7.53 7.23 7.45 7.43 7.45C7.64 7.45 7.82 7.53 7.97 7.68C8.13 7.82 8.2 8 8.2 8.2C8.2 8.89 8.38 9.53 8.71 10.12C9.06 10.7 9.52 11.16 10.1 11.5C10.67 11.83 11.31 12 12 12C12.68 12 13.31 11.83 13.89 11.5C14.47 11.16 14.93 10.7 15.27 10.12C15.62 9.53 15.78 8.89 15.78 8.2C15.78 8 15.86 7.82 16.01 7.68C16.14 7.53 16.32 7.45 16.53 7.45C16.74 7.45 16.91 7.53 17.05 7.68C17.2 7.82 17.27 8 17.27 8.2C17.27 9.16 17.04 10.05 16.56 10.87C16.09 11.68 15.45 12.33 14.64 12.79C13.84 13.27 12.96 13.5 12 13.5Z" fill="#FFFFFF" fill-opacity="1.000000" fill-rule="nonzero"/>
	</g>
</svg>
