<svg width="24.000000" height="24.000000" viewBox="0 0 24 24" fill="none" xmlns="http://www.w3.org/2000/svg" xmlns:xlink="http://www.w3.org/1999/xlink">
	<desc>
			Created with Pixso.
	</desc>
	<defs>
		<clipPath id="clip25_6698">
			<rect id="ic_ict_vip_subscribers" width="24.000000" height="24.000000" fill="white" fill-opacity="0"/>
		</clipPath>
	</defs>
	<g clip-path="url(#clip25_6698)">
		<path id="矢量 117" d="M11.23 15.79L12.87 12.9C13.19 12.34 13.78 12 14.41 12L18.58 12C19.21 12 19.8 12.34 20.12 12.9L21.76 15.78C22.13 16.44 22.06 17.26 21.58 17.83L17.86 22.35C17.15 23.21 15.84 23.21 15.13 22.35L11.41 17.83C10.93 17.26 10.86 16.44 11.23 15.79ZM17.01 18.73L18.55 16.67C18.77 16.37 18.72 15.96 18.42 15.73C18.12 15.5 17.71 15.56 17.49 15.86L16.48 17.21L15.5 15.91C15.28 15.61 14.87 15.55 14.57 15.78C14.27 16.01 14.22 16.43 14.45 16.73L15.96 18.73C16.07 18.88 16.21 18.97 16.4 18.99C16.58 19.02 16.74 18.97 16.89 18.86C16.91 18.84 16.93 18.82 16.96 18.8C16.97 18.79 17 18.74 17.01 18.73Z" fill="#BADB7C" fill-opacity="1.000000" fill-rule="evenodd"/>
		<path id="矢量 117" d="M4.85 23L13.92 23L10.21 18.63C9.74 18.08 9.49 17.52 9.44 16.93C9.38 16.35 9.54 15.75 9.9 15.14L10.93 13.37L10.62 13.37C6.41 13.37 3 16.83 3 21.11C3 22.15 3.82 23 4.85 23ZM15.28 10.79L14.24 10.79C13.64 10.79 13.12 10.92 12.67 11.17C12.3 11.38 11.98 11.68 11.72 12.06C8.97 11.97 6.77 9.75 6.77 7.03C6.77 4.25 9.06 2 11.88 2C14.71 2 17 4.25 17 7.03C17 8.52 16.33 9.87 15.28 10.79Z" fill="#8AC220" fill-opacity="1.000000" fill-rule="evenodd"/>
	</g>
</svg>
