<svg width="124" height="169" viewBox="0 0 33 45" fill="none" xmlns="http://www.w3.org/2000/svg"
     xmlns:xlink="http://www.w3.org/1999/xlink">
    <desc>
        Created with Pixso.
    </desc>
    <defs/>
    <path d="M29.54 6.52C23.96 -0.83 13.6 -2.17 6.39 3.52C-0.81 9.21 -2.13 19.79 3.45 27.14C5.32 29.6 7.73 31.39 10.38 32.47L16.52 45L22.67 32.45C24.04 31.88 25.37 31.11 26.6 30.14C33.8 24.45 35.12 13.87 29.54 6.52Z"
          fill="#FFFFFF" fill-opacity="1.000000" fill-rule="evenodd"/>
    <path d="M27.48 7.96C22.78 1.91 14.06 0.81 7.99 5.49C1.92 10.17 0.81 18.87 5.51 24.92C7.09 26.94 9.12 28.42 11.35 29.3L16.52 39.6L21.7 29.28C22.85 28.82 23.97 28.19 25 27.39C31.07 22.7 32.18 14.01 27.48 7.96Z"
          fill="#F9A01E" fill-opacity="1.000000" fill-rule="evenodd"/>
    <path d="M22.17 16.36Q22.52 15.58 22.52 14.64Q22.52 13.7 22.17 12.92Q22.06 12.68 21.92 12.46Q21.76 12.21 21.57 11.98Q21.03 11.37 20.22 10.99Q19.12 10.47 17.72 10.47L13.51 10.47L13.51 23.64L15.43 23.64L15.43 18.8L17.72 18.8Q19.14 18.8 20.23 18.27Q21.05 17.88 21.59 17.26Q21.77 17.04 21.92 16.81Q22.06 16.59 22.17 16.36ZM19.67 16.45Q18.89 17.12 17.47 17.12L15.43 17.12L15.43 12.14L17.47 12.14Q18.89 12.14 19.67 12.82Q19.97 13.08 20.15 13.4Q20.45 13.93 20.45 14.64Q20.45 15.36 20.14 15.89Q19.96 16.2 19.67 16.45Z"
          fill="#FFFFFF" fill-opacity="1.000000" fill-rule="evenodd"/>
</svg>
