<svg width="24.000000" height="24.000000" viewBox="0 0 24 24" fill="none" xmlns="http://www.w3.org/2000/svg" xmlns:xlink="http://www.w3.org/1999/xlink">
	<desc>
			Created with Pixso.
	</desc>
	<defs>
		<clipPath id="clip60_706">
			<rect width="24.000000" height="24.000000" fill="white" fill-opacity="0"/>
		</clipPath>
	</defs>
	<g clip-path="url(#clip60_706)">
		<path d="M20.88 16.45C21.3 16.84 21.33 17.51 20.93 17.93L20.22 18.7C19.69 19.26 18.98 19.62 18.11 19.76C17.9 19.8 17.68 19.82 17.46 19.83C16.83 19.85 16.14 19.77 15.41 19.58C13.41 19.08 11.3 17.85 9.44 16.13C7.58 14.41 6.2 12.39 5.55 10.45C5.22 9.48 5.09 8.58 5.17 7.77C5.24 6.89 5.55 6.16 6.08 5.59L6.79 4.83C6.84 4.78 6.89 4.73 6.95 4.69C7 4.65 7.06 4.62 7.12 4.59C7.19 4.56 7.25 4.54 7.32 4.52C7.38 4.51 7.45 4.5 7.52 4.49C7.59 4.49 7.66 4.5 7.73 4.51C7.79 4.52 7.86 4.53 7.93 4.56C7.99 4.58 8.05 4.61 8.11 4.65C8.17 4.68 8.22 4.73 8.27 4.77L11.65 7.91C12.08 8.3 12.1 8.96 11.71 9.38L11 10.15C10.59 10.58 11.06 11.92 12.29 13.06C13.52 14.21 14.9 14.57 15.3 14.14L16.01 13.37C16.06 13.32 16.11 13.28 16.17 13.24C16.22 13.2 16.28 13.16 16.35 13.13C16.41 13.1 16.47 13.08 16.54 13.07C16.61 13.05 16.67 13.04 16.74 13.04C16.81 13.04 16.88 13.04 16.95 13.05C17.02 13.06 17.08 13.08 17.15 13.1C17.21 13.13 17.27 13.16 17.33 13.19C17.39 13.23 17.44 13.27 17.5 13.32L20.88 16.45Z" fill="#387BF1" fill-opacity="1.000000" fill-rule="nonzero"/>
		<path d="M18.66 16.69C19.07 17.1 19.07 17.78 18.66 18.19L17.9 18.95C17.35 19.5 16.61 19.84 15.73 19.95C15.51 19.98 15.29 20 15.06 20C14.42 20 13.72 19.89 12.98 19.67C10.98 19.08 8.88 17.75 7.06 15.93C5.24 14.11 3.91 12.01 3.32 10.01C3.03 9.01 2.93 8.09 3.04 7.26C3.15 6.38 3.49 5.64 4.04 5.09L4.8 4.33C4.85 4.28 4.9 4.24 4.96 4.2C5.02 4.16 5.08 4.13 5.14 4.1C5.21 4.08 5.27 4.06 5.34 4.04C5.41 4.03 5.48 4.02 5.55 4.02C5.62 4.02 5.69 4.03 5.76 4.04C5.83 4.06 5.89 4.08 5.96 4.1C6.02 4.13 6.08 4.16 6.14 4.2C6.2 4.24 6.25 4.28 6.3 4.33L9.62 7.65C10.03 8.06 10.03 8.74 9.62 9.16L8.86 9.91C8.44 10.33 8.86 11.71 10.07 12.92C11.28 14.13 12.66 14.55 13.08 14.13L13.84 13.37C13.89 13.32 13.94 13.28 14 13.24C14.06 13.2 14.12 13.17 14.18 13.14C14.25 13.12 14.31 13.09 14.38 13.08C14.45 13.07 14.52 13.06 14.59 13.06C14.66 13.06 14.73 13.07 14.8 13.08C14.87 13.09 14.93 13.12 15 13.14C15.06 13.17 15.12 13.2 15.18 13.24C15.24 13.28 15.29 13.32 15.34 13.37L18.66 16.69ZM13.18 8.96C13.65 8.96 14.03 9.34 14.03 9.81C14.03 9.87 14.04 9.92 14.07 9.97C14.09 10.02 14.12 10.07 14.16 10.1C14.2 10.14 14.24 10.17 14.3 10.19C14.35 10.21 14.4 10.22 14.46 10.22C14.51 10.22 14.56 10.21 14.62 10.19C14.67 10.17 14.71 10.14 14.75 10.1C14.79 10.07 14.82 10.02 14.84 9.97C14.87 9.92 14.88 9.87 14.88 9.81C14.88 9.7 14.87 9.59 14.85 9.48C14.83 9.37 14.79 9.26 14.75 9.16C14.71 9.06 14.66 8.96 14.59 8.87C14.53 8.77 14.46 8.69 14.38 8.61C14.3 8.53 14.22 8.46 14.12 8.4C14.03 8.33 13.93 8.28 13.83 8.24C13.73 8.2 13.62 8.16 13.51 8.14C13.4 8.12 13.29 8.11 13.18 8.11C13.12 8.11 13.07 8.12 13.02 8.14C12.97 8.17 12.92 8.2 12.89 8.24C12.85 8.28 12.82 8.32 12.8 8.37C12.78 8.43 12.77 8.48 12.77 8.53C12.77 8.59 12.78 8.64 12.8 8.69C12.82 8.74 12.85 8.79 12.89 8.83C12.92 8.87 12.97 8.9 13.02 8.92C13.07 8.95 13.12 8.96 13.18 8.96ZM19.46 7.16C19.33 6.85 19.18 6.56 19 6.27C18.83 5.99 18.64 5.72 18.43 5.46C18.21 5.2 17.98 4.96 17.73 4.74C17.49 4.52 17.22 4.31 16.95 4.13C16.67 3.95 16.38 3.78 16.08 3.64C15.77 3.5 15.46 3.38 15.15 3.28C14.83 3.19 14.5 3.12 14.17 3.07C13.84 3.02 13.51 2.99 13.18 3C13.12 3 13.07 3.01 13.02 3.03C12.97 3.05 12.92 3.09 12.89 3.13C12.85 3.16 12.82 3.21 12.8 3.26C12.78 3.31 12.77 3.37 12.77 3.42C12.77 3.48 12.78 3.53 12.8 3.58C12.82 3.63 12.85 3.68 12.89 3.72C12.92 3.76 12.97 3.79 13.02 3.81C13.07 3.83 13.12 3.85 13.18 3.85C16.47 3.85 19.14 6.52 19.14 9.81C19.14 9.87 19.15 9.93 19.17 9.98C19.19 10.03 19.22 10.08 19.26 10.12C19.3 10.17 19.35 10.2 19.4 10.22C19.46 10.24 19.51 10.25 19.57 10.25C19.63 10.25 19.68 10.24 19.74 10.22C19.79 10.2 19.84 10.17 19.88 10.12C19.92 10.08 19.95 10.03 19.97 9.98C19.99 9.93 20 9.87 19.99 9.81C20 8.89 19.82 8.01 19.46 7.16ZM13.18 6.4C13.29 6.4 13.4 6.41 13.51 6.42C13.62 6.43 13.73 6.45 13.84 6.47C13.95 6.49 14.06 6.52 14.17 6.55C14.27 6.58 14.38 6.62 14.48 6.66C14.58 6.71 14.68 6.76 14.78 6.81C14.88 6.86 14.98 6.92 15.07 6.98C15.16 7.04 15.25 7.11 15.34 7.18C15.42 7.25 15.51 7.32 15.59 7.4C15.67 7.48 15.74 7.57 15.81 7.65C15.88 7.74 15.95 7.83 16.01 7.92C16.07 8.01 16.13 8.11 16.18 8.21C16.23 8.31 16.28 8.41 16.33 8.51C16.37 8.61 16.41 8.72 16.44 8.82C16.47 8.93 16.5 9.04 16.52 9.15C16.54 9.26 16.56 9.37 16.57 9.48C16.58 9.59 16.59 9.7 16.59 9.81C16.58 9.87 16.59 9.93 16.61 9.98C16.63 10.04 16.66 10.08 16.71 10.12C16.75 10.17 16.79 10.2 16.85 10.22C16.9 10.24 16.95 10.26 17.01 10.26C17.07 10.26 17.13 10.24 17.18 10.22C17.23 10.2 17.28 10.17 17.32 10.12C17.36 10.08 17.39 10.04 17.41 9.98C17.43 9.93 17.44 9.87 17.44 9.81C17.44 9.67 17.43 9.53 17.42 9.4C17.4 9.26 17.38 9.12 17.36 8.98C17.33 8.84 17.3 8.71 17.25 8.58C17.21 8.44 17.17 8.31 17.11 8.18C17.06 8.05 17 7.93 16.94 7.8C16.87 7.68 16.8 7.56 16.72 7.45C16.64 7.33 16.56 7.22 16.47 7.11C16.38 7 16.29 6.9 16.19 6.8C16.09 6.7 15.99 6.61 15.88 6.52C15.77 6.43 15.66 6.35 15.54 6.27C15.43 6.19 15.31 6.12 15.19 6.06C15.06 5.99 14.94 5.93 14.81 5.88C14.68 5.82 14.55 5.78 14.41 5.74C14.28 5.7 14.15 5.66 14.01 5.63C13.87 5.61 13.73 5.59 13.59 5.57C13.46 5.56 13.32 5.55 13.18 5.55C13.12 5.55 13.07 5.57 13.02 5.59C12.97 5.61 12.92 5.64 12.89 5.68C12.85 5.72 12.82 5.77 12.8 5.82C12.78 5.87 12.77 5.92 12.77 5.98C12.77 6.03 12.78 6.09 12.8 6.14C12.82 6.19 12.85 6.23 12.89 6.27C12.92 6.31 12.97 6.35 13.02 6.37C13.07 6.39 13.12 6.4 13.18 6.4Z" fill="#93B9FF" fill-opacity="1.000000" fill-rule="nonzero"/>
	</g>
</svg>
