<svg width="24.000000" height="24.000000" viewBox="0 0 24 24" fill="none" xmlns="http://www.w3.org/2000/svg" xmlns:xlink="http://www.w3.org/1999/xlink">
	<desc>
			Created with Pixso.
	</desc>
	<defs>
		<clipPath id="clip60_750">
			<rect width="24.000000" height="24.000000" fill="white" fill-opacity="0"/>
		</clipPath>
	</defs>
	<g clip-path="url(#clip60_750)">
		<path d="M7.57 14.42L16.06 14.42C15.86 14.11 15.77 13.77 15.77 13.4C15.77 12.86 16 12.37 16.35 12.02C16.71 11.66 17.2 11.44 17.73 11.44C18.26 11.44 18.75 11.66 19.11 12.02C19.46 12.37 19.68 12.86 19.68 13.4C19.68 13.71 19.62 13.97 19.48 14.24C20.11 14.11 20.73 13.88 21.13 13.46L20.84 11.51C19.51 11 17.48 10.8 15.97 10.6C14.97 9.93 13.73 9.37 12.28 8.91C10.6 8.77 9.42 8.71 7.84 8.91C7.11 9.22 6.62 9.62 6.15 10.13C5.24 10.24 4.11 10.62 3.42 10.93L3 13.28C3.31 13.75 3.71 14.02 4.13 14.24L4.2 14.24C4.06 13.97 4 13.68 4 13.37C4 12.84 4.22 12.35 4.57 12C4.93 11.64 5.42 11.42 5.95 11.42C6.48 11.42 6.97 11.64 7.33 12C7.68 12.35 7.91 12.84 7.91 13.37C7.86 13.77 7.75 14.11 7.57 14.42ZM20.68 11.86C20.44 11.88 20.2 11.91 19.93 11.95C19.62 11.68 19.28 11.53 18.93 11.46C18.93 11.4 18.95 11.33 18.95 11.26C19.68 11.35 20.28 11.51 20.68 11.86ZM3.37 12.46C3.46 12 3.55 11.55 3.64 11.08C3.86 11.02 4.08 10.93 4.31 10.86C4.35 10.97 4.37 11.08 4.42 11.2C4 11.46 3.77 11.93 3.64 12.46L3.37 12.46ZM9.48 10.62L15.22 10.77C15.26 11.33 15.22 11.88 15.11 12.4C15.02 12.91 14.84 13.4 14.64 13.86L9.82 13.86C9.42 12.71 9.31 11.95 9.31 11.44L10.31 11.44L10.31 11.11L9.33 11.11C9.37 10.88 9.44 10.73 9.48 10.62ZM15.35 10.77C15.4 11.35 15.35 11.91 15.24 12.44C15.13 12.97 14.97 13.48 14.75 13.97L14.75 14L9.73 14L9.71 13.95C8.97 11.84 9.17 10.97 9.35 10.6L7.71 10.55C7.91 10.11 8.15 9.68 8.48 9.28C9.53 9.15 10.77 9.17 12.11 9.26C12.55 9.37 15.44 10.73 15.35 10.77ZM5.91 11.66C6.37 11.66 6.82 11.86 7.13 12.17C7.44 12.48 7.64 12.91 7.64 13.4C7.64 13.86 7.44 14.31 7.13 14.62C6.82 14.93 6.39 15.13 5.91 15.13C5.44 15.13 5 14.93 4.68 14.62C4.37 14.31 4.17 13.88 4.17 13.4C4.17 12.93 4.37 12.48 4.68 12.17C5.02 11.86 5.44 11.66 5.91 11.66ZM17.71 12.35C17.77 12.35 17.84 12.35 17.91 12.37L17.93 12.17C18.2 12.22 18.44 12.35 18.62 12.53C18.73 12.64 18.79 12.75 18.86 12.88L18.66 12.95C18.71 13.06 18.75 13.2 18.75 13.31L18.95 13.26L18.95 13.42C18.95 13.73 18.84 14.02 18.64 14.26L18.48 14.11C18.4 14.2 18.31 14.28 18.2 14.35L18.33 14.53C18.15 14.64 17.93 14.71 17.68 14.71C17.51 14.71 17.35 14.66 17.2 14.6L17.31 14.4C17.2 14.35 17.08 14.28 17 14.2L16.86 14.37C16.84 14.35 16.82 14.33 16.79 14.33C16.57 14.11 16.42 13.77 16.42 13.44C16.42 13.37 16.42 13.33 16.44 13.26L16.64 13.31C16.66 13.17 16.68 13.06 16.75 12.95L16.55 12.88C16.62 12.75 16.68 12.64 16.79 12.55C16.97 12.37 17.22 12.24 17.48 12.2L17.51 12.4C17.57 12.35 17.64 12.35 17.71 12.35ZM17.71 11.66C18.17 11.66 18.62 11.86 18.93 12.17C19.24 12.48 19.44 12.91 19.44 13.4C19.44 13.86 19.24 14.31 18.93 14.62C18.62 14.93 18.2 15.13 17.71 15.13C17.24 15.13 16.79 14.93 16.48 14.62C16.17 14.31 15.97 13.88 15.97 13.4C15.97 12.93 16.17 12.48 16.48 12.17C16.79 11.86 17.24 11.66 17.71 11.66ZM17.71 12.04C18.08 12.04 18.44 12.2 18.68 12.44C18.93 12.68 19.08 13.04 19.08 13.42C19.08 13.8 18.93 14.15 18.68 14.4C18.44 14.64 18.08 14.8 17.71 14.8C17.33 14.8 16.97 14.64 16.73 14.4C16.48 14.15 16.33 13.8 16.33 13.42C16.33 13.04 16.48 12.68 16.73 12.44C16.97 12.2 17.33 12.04 17.71 12.04ZM5.91 12.35C5.97 12.35 6.04 12.35 6.11 12.37L6.13 12.17C6.39 12.22 6.64 12.35 6.82 12.53C6.93 12.64 7 12.75 7.06 12.88L6.86 12.95C6.91 13.06 6.95 13.2 6.95 13.31L7.15 13.26L7.15 13.42C7.15 13.73 7.04 14.02 6.84 14.26L6.68 14.11C6.6 14.2 6.51 14.28 6.39 14.35L6.53 14.53C6.35 14.64 6.13 14.71 5.88 14.71C5.71 14.71 5.55 14.66 5.39 14.6L5.51 14.4C5.39 14.35 5.28 14.28 5.2 14.2L5.06 14.37C5.04 14.35 5.02 14.33 5 14.33C4.77 14.11 4.62 13.77 4.62 13.44L4.62 13.26L4.82 13.31C4.84 13.17 4.86 13.06 4.93 12.95L4.73 12.88C4.79 12.75 4.86 12.64 4.97 12.55C5.15 12.37 5.39 12.24 5.66 12.2L5.68 12.4C5.79 12.35 5.86 12.35 5.91 12.35ZM5.93 12.04C6.31 12.04 6.66 12.2 6.91 12.44C7.15 12.68 7.31 13.04 7.31 13.42C7.31 13.8 7.15 14.15 6.91 14.4C6.66 14.64 6.31 14.8 5.93 14.8C5.55 14.8 5.2 14.64 4.95 14.4C4.71 14.15 4.55 13.8 4.55 13.42C4.55 13.04 4.71 12.68 4.95 12.44C5.2 12.2 5.53 12.04 5.93 12.04Z" fill="#387BF1" fill-opacity="1.000000" fill-rule="nonzero"/>
	</g>
</svg>
