<svg width="24.000000" height="24.000000" viewBox="0 0 24 24" fill="none" xmlns="http://www.w3.org/2000/svg" xmlns:xlink="http://www.w3.org/1999/xlink">
	<desc>
			Created with Pixso.
	</desc>
	<defs>
		<clipPath id="clip60_752">
			<rect width="24.000000" height="24.000000" fill="white" fill-opacity="0"/>
		</clipPath>
	</defs>
	<g clip-path="url(#clip60_752)">
		<path d="M21.13 14.26L22.44 14.26L22.06 16.11L21.15 16.11L21.15 16.02C21.15 15.26 20.84 14.6 20.35 14.11C19.86 13.62 19.2 13.31 18.44 13.31C17.68 13.31 17.02 13.62 16.53 14.11C16.04 14.6 15.73 15.26 15.73 16.02L15.73 16.11L13.51 16.11L13.51 8.64L13.28 8.64L13.28 16.08L8.57 16.08L8.57 16C8.57 15.26 8.28 14.6 7.8 14.11C7.33 13.64 6.66 13.33 5.91 13.33C5.17 13.33 4.51 13.62 4.02 14.11C3.53 14.6 3.24 15.26 3.24 16L3.24 16.08L3.06 16.08L2.51 14.91L2.51 13.68L2.17 13.68L2.17 12.84L1.46 12.84L1.46 10.66L12.13 10.66C12.15 9.77 12.2 8.93 12.31 8.11L17.11 8.11C18.17 9.04 18.86 10.11 19.28 11.24C20.02 11.48 20.75 11.75 21.48 12C21.73 12.4 21.91 12.82 22.02 13.22L20.75 13.22L21.13 14.26ZM14.26 12.44L14.26 12.77L15.11 12.77L15.11 12.44L14.26 12.44ZM14.15 8.79L14.15 11.93L16.33 11.93L17.06 11.35L18.35 11.35C18.06 10.42 17.53 9.57 16.84 8.79L14.15 8.79ZM4.51 11L4.51 12.42L4.77 12.42L4.77 11L4.51 11ZM2.31 11L2.31 12.42L2.57 12.42L2.57 11L2.31 11ZM6.71 11L6.71 12.42L6.97 12.42L6.97 11L6.71 11ZM8.93 11L8.93 12.42L9.2 12.42L9.2 11L8.93 11ZM11.13 11L11.13 12.42L11.4 12.42L11.4 11L11.13 11ZM18.44 13.97C17.88 13.97 17.37 14.2 17 14.57C16.64 14.93 16.4 15.44 16.4 16.02C16.4 16.57 16.62 17.08 17 17.46C17.37 17.84 17.86 18.06 18.44 18.06C19 18.06 19.51 17.84 19.88 17.46C20.26 17.08 20.48 16.6 20.48 16.02C20.48 15.46 20.26 14.95 19.88 14.57C19.51 14.2 19 13.97 18.44 13.97ZM18.46 15.37C18.28 15.37 18.13 15.44 18.02 15.55C17.91 15.66 17.84 15.82 17.84 16C17.84 16.17 17.91 16.33 18.02 16.44C18.13 16.55 18.28 16.62 18.46 16.62C18.64 16.62 18.79 16.55 18.91 16.44C19.02 16.33 19.08 16.17 19.08 16C19.08 15.82 19.02 15.66 18.91 15.55C18.79 15.44 18.64 15.37 18.46 15.37ZM18.66 15.82C18.62 15.77 18.55 15.73 18.46 15.73C18.4 15.73 18.31 15.75 18.26 15.82C18.22 15.86 18.17 15.93 18.17 16.02C18.17 16.08 18.2 16.17 18.26 16.22C18.31 16.26 18.37 16.31 18.46 16.31C18.53 16.31 18.62 16.28 18.66 16.22C18.71 16.17 18.75 16.11 18.75 16.02C18.73 15.93 18.71 15.86 18.66 15.82ZM19.06 15.37C18.91 15.22 18.68 15.11 18.44 15.11C18.2 15.11 17.97 15.2 17.82 15.37C17.66 15.53 17.55 15.75 17.55 16C17.55 16.24 17.64 16.46 17.82 16.62C17.97 16.77 18.2 16.88 18.44 16.88C18.68 16.88 18.91 16.79 19.06 16.62C19.22 16.46 19.33 16.24 19.33 16C19.33 15.75 19.24 15.53 19.06 15.37ZM5.91 13.97C5.35 13.97 4.84 14.2 4.46 14.57C4.11 14.93 3.86 15.44 3.86 16.02C3.86 16.57 4.08 17.08 4.46 17.46C4.84 17.84 5.33 18.06 5.91 18.06C6.46 18.06 6.97 17.84 7.35 17.46C7.73 17.08 7.95 16.6 7.95 16.02C7.95 15.46 7.73 14.95 7.35 14.57C6.97 14.2 6.48 13.97 5.91 13.97ZM5.91 15.37C5.73 15.37 5.57 15.44 5.46 15.55C5.35 15.66 5.28 15.82 5.28 16C5.28 16.17 5.35 16.33 5.46 16.44C5.57 16.55 5.73 16.62 5.91 16.62C6.08 16.62 6.24 16.55 6.35 16.44C6.46 16.33 6.53 16.17 6.53 16C6.53 15.82 6.46 15.66 6.35 15.55C6.26 15.44 6.08 15.37 5.91 15.37ZM6.11 15.82C6.06 15.77 6 15.73 5.91 15.73C5.84 15.73 5.75 15.75 5.71 15.82C5.66 15.86 5.62 15.93 5.62 16.02C5.62 16.08 5.64 16.17 5.71 16.22C5.75 16.26 5.82 16.31 5.91 16.31C5.97 16.31 6.06 16.28 6.11 16.22C6.15 16.17 6.2 16.11 6.2 16.02C6.2 15.93 6.17 15.86 6.11 15.82ZM6.55 15.37C6.39 15.22 6.17 15.11 5.93 15.11C5.68 15.11 5.46 15.2 5.31 15.37C5.15 15.53 5.04 15.75 5.04 16C5.04 16.24 5.13 16.46 5.31 16.62C5.46 16.77 5.68 16.88 5.93 16.88C6.17 16.88 6.39 16.79 6.55 16.62C6.71 16.46 6.82 16.24 6.82 16C6.8 15.75 6.71 15.53 6.55 15.37Z" fill="#387BF1" fill-opacity="1.000000" fill-rule="nonzero"/>
	</g>
</svg>
