<svg width="24.000000" height="24.000000" viewBox="0 0 24 24" fill="none" xmlns="http://www.w3.org/2000/svg" xmlns:xlink="http://www.w3.org/1999/xlink">
	<desc>
			Created with Pixso.
	</desc>
	<defs>
		<clipPath id="clip57_1180">
			<rect width="24.000000" height="24.000000" fill="white" fill-opacity="0"/>
		</clipPath>
	</defs>
	<g clip-path="url(#clip57_1180)">
		<path d="M12.49 15.61L16.6 18.75C16.65 18.79 16.7 18.81 16.75 18.82C16.8 18.83 16.85 18.82 16.9 18.81C17.07 18.75 17.16 18.58 17.11 18.43L15.54 13.27L19.74 10.03C19.78 10 19.81 9.96 19.83 9.92C19.85 9.88 19.86 9.83 19.86 9.78C19.86 9.62 19.72 9.47 19.54 9.47L14.37 9.47L12.8 4.39C12.79 4.34 12.76 4.3 12.72 4.26C12.69 4.22 12.64 4.2 12.59 4.18C12.42 4.13 12.24 4.22 12.19 4.39L10.62 9.47L5.45 9.47C5.4 9.47 5.35 9.48 5.3 9.51C5.26 9.53 5.22 9.56 5.19 9.6C5.18 9.62 5.17 9.63 5.16 9.65C5.15 9.67 5.14 9.69 5.14 9.71C5.13 9.73 5.13 9.75 5.13 9.77C5.13 9.79 5.13 9.81 5.13 9.83C5.13 9.85 5.14 9.87 5.14 9.88C5.15 9.9 5.16 9.92 5.17 9.94C5.18 9.96 5.19 9.97 5.2 9.99C5.22 10 5.23 10.01 5.25 10.03L9.45 13.27L7.88 18.43C7.86 18.47 7.86 18.52 7.87 18.57C7.88 18.61 7.89 18.66 7.92 18.69C8.03 18.84 8.24 18.87 8.38 18.75L12.49 15.61ZM9.06 19.7C9.02 19.73 8.98 19.75 8.94 19.78C8.9 19.8 8.86 19.83 8.82 19.85C8.77 19.87 8.73 19.89 8.69 19.9C8.64 19.92 8.6 19.94 8.55 19.95C8.5 19.96 8.46 19.97 8.41 19.98C8.37 19.98 8.32 19.99 8.27 19.99C8.22 20 8.18 20 8.13 19.99C8.08 19.99 8.04 19.99 7.99 19.98C7.94 19.97 7.9 19.97 7.85 19.95C7.8 19.94 7.76 19.93 7.71 19.91C7.67 19.9 7.63 19.88 7.58 19.86C7.54 19.84 7.5 19.82 7.46 19.79C7.41 19.77 7.38 19.74 7.34 19.72C7.3 19.69 7.26 19.66 7.23 19.63C7.19 19.59 7.16 19.56 7.12 19.53C7.09 19.49 7.06 19.45 7.03 19.41C6.96 19.32 6.9 19.22 6.85 19.11C6.81 19 6.77 18.89 6.75 18.77C6.73 18.66 6.72 18.54 6.73 18.42C6.74 18.3 6.76 18.19 6.79 18.07L8.13 13.71L4.57 10.96C4.53 10.94 4.5 10.9 4.46 10.87C4.43 10.84 4.39 10.8 4.36 10.77C4.33 10.73 4.3 10.69 4.27 10.65C4.24 10.62 4.22 10.57 4.19 10.53C4.17 10.49 4.15 10.45 4.13 10.4C4.11 10.36 4.09 10.31 4.07 10.27C4.06 10.22 4.04 10.17 4.03 10.13C4.02 10.08 4.01 10.03 4.01 9.98C4 9.93 4 9.88 4 9.83C3.99 9.79 3.99 9.74 4 9.69C4 9.64 4.01 9.59 4.01 9.54C4.02 9.49 4.03 9.45 4.04 9.4C4.06 9.35 4.07 9.31 4.09 9.26C4.11 9.21 4.12 9.17 4.15 9.13C4.17 9.08 4.19 9.04 4.22 9C4.24 8.96 4.27 8.92 4.3 8.88C4.37 8.79 4.44 8.71 4.53 8.64C4.62 8.56 4.71 8.5 4.81 8.45C4.91 8.4 5.01 8.37 5.12 8.34C5.23 8.31 5.34 8.3 5.45 8.3L9.79 8.29L11.11 4.03C11.35 3.25 12.16 2.82 12.92 3.06C13.03 3.1 13.14 3.14 13.24 3.21C13.34 3.27 13.43 3.34 13.52 3.42C13.6 3.51 13.67 3.6 13.74 3.71C13.8 3.81 13.85 3.92 13.88 4.03L15.2 8.29L19.54 8.3C20.34 8.3 21 8.96 21 9.79C20.99 9.9 20.98 10.01 20.96 10.13C20.93 10.24 20.89 10.34 20.84 10.45C20.79 10.55 20.73 10.64 20.66 10.73C20.59 10.82 20.51 10.9 20.42 10.96L16.86 13.71L18.19 18.07C18.43 18.86 18 19.69 17.23 19.93C17.12 19.96 17.01 19.98 16.89 19.99C16.78 20 16.67 19.99 16.55 19.97C16.44 19.95 16.33 19.92 16.23 19.87C16.12 19.83 16.02 19.77 15.93 19.7L12.49 17.06L9.06 19.7Z" fill="#000000" fill-opacity="0.600000" fill-rule="nonzero"/>
	</g>
</svg>
