<svg width="24.000000" height="24.000000" viewBox="0 0 24 24" fill="none" xmlns="http://www.w3.org/2000/svg" xmlns:xlink="http://www.w3.org/1999/xlink">
	<desc>
			Created with Pixso.
	</desc>
	<defs>
		<clipPath id="clip22_1608">
			<rect id="delete_left" width="24.000000" height="24.000000" fill="white" fill-opacity="0"/>
		</clipPath>
	</defs>
	<g clip-path="url(#clip22_1608)">
		<g opacity="0.000000"/>
		<path id="path" d="M17.28 14.21C17.42 14.35 17.5 14.52 17.5 14.74C17.5 14.94 17.42 15.12 17.28 15.26C17.12 15.4 16.94 15.48 16.75 15.48C16.55 15.48 16.37 15.4 16.2 15.26L13.99 13.03L11.76 15.26C11.62 15.37 11.4 15.47 11.2 15.47C11 15.46 10.83 15.39 10.7 15.26C10.57 15.13 10.5 14.97 10.5 14.78C10.49 14.59 10.54 14.41 10.66 14.26L12.94 11.98L10.7 9.77C10.56 9.6 10.49 9.42 10.49 9.21C10.49 9 10.56 8.82 10.7 8.68C10.83 8.56 10.99 8.49 11.18 8.47C11.37 8.47 11.55 8.52 11.71 8.64L13.99 10.91L16.2 8.68C16.36 8.54 16.54 8.46 16.74 8.46C16.94 8.46 17.12 8.54 17.28 8.68C17.42 8.82 17.5 9 17.5 9.21C17.5 9.42 17.42 9.6 17.28 9.77L15.05 11.98L17.28 14.21Z" fill="#000000" fill-opacity="0.898039" fill-rule="nonzero"/>
		<path id="path" d="M7.85 6.5C7.56 6.5 7.32 6.59 7.13 6.79L2.95 10.92C2.81 11.08 2.7 11.25 2.62 11.43C2.54 11.62 2.5 11.8 2.5 12C2.5 12.2 2.54 12.4 2.62 12.59C2.7 12.77 2.81 12.93 2.95 13.08L7.13 17.2C7.32 17.4 7.56 17.5 7.85 17.5L21.07 17.5C21.17 17.5 21.26 17.43 21.35 17.29C21.43 17.17 21.48 17.01 21.48 16.81L21.48 7.17C21.48 6.98 21.43 6.82 21.35 6.69C21.26 6.56 21.17 6.5 21.07 6.5L7.85 6.5ZM21.07 4.98C21.59 4.98 22.05 5.2 22.43 5.63C22.8 6.05 22.99 6.56 22.99 7.17L22.99 16.79C22.99 17.4 22.8 17.92 22.43 18.35C22.05 18.77 21.59 18.98 21.07 18.98L7.85 18.98C7.51 18.98 7.19 18.91 6.89 18.79C6.58 18.66 6.31 18.48 6.07 18.26L1.9 14.14C1.5 13.75 1.23 13.3 1.09 12.78C0.95 12.26 0.95 11.74 1.09 11.22C1.23 10.7 1.5 10.24 1.9 9.85L6.07 5.7C6.31 5.48 6.58 5.31 6.89 5.17C7.19 5.05 7.51 4.98 7.85 4.98L21.07 4.98Z" fill="#000000" fill-opacity="0.898039" fill-rule="nonzero"/>
	</g>
</svg>
