<svg width="24.000000" height="24.000000" viewBox="0 0 24 24" fill="none" xmlns="http://www.w3.org/2000/svg" xmlns:xlink="http://www.w3.org/1999/xlink">
	<desc>
			Created with Pixso.
	</desc>
	<defs>
		<clipPath id="clip114_1704">
			<rect width="24.000000" height="24.000000" fill="white" fill-opacity="0"/>
		</clipPath>
	</defs>
	<g clip-path="url(#clip114_1704)">
		<path d="M21.81 3.09C22.51 2.89 23.16 3.5 22.98 4.19L19.12 19.33C18.91 20.12 17.82 20.27 17.4 19.57L13.47 13.02C13.38 12.87 13.26 12.76 13.11 12.68L6.27 9.08C6.19 9.03 6.12 8.98 6.05 8.91C5.99 8.85 5.93 8.78 5.89 8.7C5.85 8.62 5.82 8.53 5.8 8.44C5.78 8.35 5.78 8.26 5.79 8.17C5.8 8.08 5.82 7.99 5.86 7.9C5.89 7.82 5.94 7.74 6 7.67C6.06 7.6 6.13 7.54 6.21 7.5C6.29 7.45 6.37 7.41 6.46 7.39L21.81 3.09Z" fill="#387BF1" fill-opacity="1.000000" fill-rule="nonzero"/>
		<path d="M18.93 2.06C20.13 1.72 21.25 2.8 20.95 3.99L16.98 19.77C16.63 21.17 14.74 21.44 14.01 20.2L10.16 13.69C10.01 13.43 9.8 13.23 9.53 13.09L2.85 9.51C1.57 8.82 1.77 6.94 3.17 6.54L18.93 2.06L18.93 2.06Z" fill="#93B9FF" fill-opacity="1.000000" fill-rule="nonzero"/>
		<path d="M12.27 10.15C12.23 10.11 12.19 10.06 12.15 10.01C12.12 9.96 12.09 9.91 12.07 9.85C12.04 9.8 12.03 9.74 12.01 9.68C12 9.62 12 9.56 12 9.5C12 9.44 12 9.38 12.01 9.32C12.03 9.26 12.04 9.2 12.07 9.15C12.09 9.09 12.12 9.04 12.15 8.99C12.19 8.94 12.23 8.89 12.27 8.85L14.92 6.26C14.96 6.22 15.01 6.18 15.06 6.15C15.11 6.12 15.17 6.09 15.23 6.06C15.28 6.04 15.34 6.02 15.4 6.01C15.46 6 15.52 6 15.58 6C15.64 6 15.7 6 15.76 6.01C15.82 6.02 15.88 6.04 15.94 6.06C16 6.09 16.05 6.12 16.1 6.15C16.15 6.18 16.2 6.22 16.25 6.26C16.29 6.3 16.33 6.35 16.36 6.4C16.4 6.45 16.42 6.5 16.45 6.56C16.47 6.61 16.49 6.67 16.5 6.73C16.51 6.79 16.52 6.85 16.52 6.91C16.52 6.97 16.51 7.03 16.5 7.09C16.49 7.15 16.47 7.21 16.45 7.26C16.42 7.32 16.4 7.37 16.36 7.42C16.33 7.47 16.29 7.52 16.25 7.56L13.59 10.15C13.55 10.19 13.5 10.23 13.45 10.26C13.4 10.3 13.35 10.32 13.29 10.35C13.23 10.37 13.17 10.39 13.11 10.4C13.05 10.41 12.99 10.42 12.93 10.42C12.87 10.42 12.81 10.41 12.75 10.4C12.69 10.39 12.63 10.37 12.57 10.35C12.52 10.32 12.46 10.3 12.41 10.26C12.36 10.23 12.31 10.19 12.27 10.15Z" fill="#FFFFFF" fill-opacity="1.000000" fill-rule="nonzero"/>
	</g>
</svg>
