<svg width="9.000000" height="9.000000" viewBox="0 0 9 9" fill="none" xmlns="http://www.w3.org/2000/svg" xmlns:xlink="http://www.w3.org/1999/xlink">
	<desc>
			Created with Pixso.
	</desc>
	<defs/>
	<circle cx="4.500000" cy="4.500000" r="4.500000" fill="#C4C4C4" fill-opacity="1.000000"/>
	<path d="M6.30334 2.76777C6.10803 2.5725 5.7915 2.5725 5.59619 2.76777L4.53552 3.82843L3.47485 2.76777C3.27954 2.5725 2.96301 2.5725 2.7677 2.76777C2.57251 2.96303 2.57251 3.27961 2.7677 3.47488L3.82837 4.53554L2.7677 5.59619C2.57251 5.79146 2.57251 6.10804 2.7677 6.3033C2.96301 6.49857 3.27954 6.49857 3.47485 6.3033L4.53552 5.24264L5.59619 6.3033C5.7915 6.49857 6.10803 6.49857 6.30334 6.3033C6.49854 6.10804 6.49854 5.79146 6.30334 5.59619L5.24268 4.53554L6.30334 3.47488C6.49854 3.27961 6.49854 2.96303 6.30334 2.76777Z" clip-rule="evenodd" fill="#FFFFFF" fill-opacity="1.000000" fill-rule="evenodd"/>
</svg>
