<svg width="24.000000" height="24.000000" viewBox="0 0 24 24" fill="none" xmlns="http://www.w3.org/2000/svg" xmlns:xlink="http://www.w3.org/1999/xlink">
	<desc>
			Created with Pixso.
	</desc>
	<defs/>
	<path id="path-1" d="M4.08 7.91C3.83 6.82 4.16 5.67 4.96 4.88C5.4 4.39 5.82 4.1 6.21 4.02C6.81 3.91 7.42 4.14 7.79 4.61L9.08 6.2C9.14 6.28 9.19 6.34 9.22 6.38C9.71 6.93 9.73 7.78 9.23 8.32L8.33 9.17C7.98 9.51 7.92 10.05 8.18 10.46C8.68 11.26 9.61 12.35 10.64 13.35C11.64 14.38 12.73 15.31 13.53 15.81C13.94 16.07 14.48 16.01 14.82 15.66L15.64 14.8C16.16 14.31 16.99 14.25 17.53 14.7L17.67 14.82C17.99 15.08 18.97 15.87 19.38 16.2C19.85 16.57 20.08 17.18 19.97 17.78C19.89 18.17 19.6 18.59 19.11 19.03C18.32 19.83 17.17 20.16 16.08 19.91C13.75 19.37 11 17.55 8.71 15.28C6.44 12.99 4.62 10.24 4.08 7.91Z" fill="#000000" fill-opacity="0.898039" fill-rule="nonzero"/>
	<path id="path-1" d="M4.96 4.88C5.4 4.39 5.82 4.1 6.21 4.02C6.81 3.91 7.42 4.14 7.79 4.61L9.08 6.2C9.14 6.28 9.19 6.34 9.22 6.38C9.71 6.93 9.73 7.78 9.23 8.32L8.33 9.17C7.98 9.51 7.92 10.05 8.18 10.46C8.68 11.26 9.61 12.35 10.64 13.35C11.64 14.38 12.73 15.31 13.53 15.81C13.94 16.07 14.48 16.01 14.82 15.66L15.64 14.8C16.16 14.31 16.99 14.25 17.53 14.7L17.67 14.82C17.99 15.08 18.97 15.87 19.38 16.2C19.85 16.57 20.08 17.18 19.97 17.78C19.89 18.17 19.6 18.59 19.11 19.03C18.32 19.83 17.17 20.16 16.08 19.91C13.75 19.37 11 17.55 8.71 15.28C6.44 12.99 4.62 10.24 4.08 7.91C3.83 6.82 4.16 5.67 4.96 4.88Z" stroke="#000000" stroke-opacity="0" stroke-width="1.000000"/>
</svg>
