<svg width="16.000000" height="16.000000" viewBox="0 0 16 16" fill="none" xmlns="http://www.w3.org/2000/svg" xmlns:xlink="http://www.w3.org/1999/xlink">
	<desc>
			Created with Pixso.
	</desc>
	<defs/>
	<rect id="ic_时钟" width="16.000000" height="16.000000" fill="#FFFFFF" fill-opacity="0"/>
	<path id="矢量 205" d="M8 1C4.13 1 1 4.13 1 8C1 11.86 4.13 15 8 15C11.86 15 15 11.86 15 8C15 4.13 11.86 1 8 1ZM8.7 8.23L8.7 4.21C8.7 3.81 8.39 3.5 8 3.5C7.6 3.5 7.29 3.81 7.29 4.21L7.29 8.51C7.29 8.56 7.29 8.6 7.3 8.65C7.31 8.69 7.32 8.73 7.34 8.78C7.37 8.86 7.42 8.93 7.48 9L9.54 11.19C9.81 11.48 10.26 11.49 10.54 11.22C10.83 10.94 10.85 10.5 10.57 10.21L8.7 8.23Z" fill="#62B42E" fill-opacity="1.000000" fill-rule="evenodd"/>
</svg>
