<svg width="24.000000" height="24.000000" viewBox="0 0 24 24" fill="none" xmlns="http://www.w3.org/2000/svg" xmlns:xlink="http://www.w3.org/1999/xlink">
	<desc>
			Created with Pixso.
	</desc>
	<defs>
		<clipPath id="clip25_6415">
			<rect id="ic_public_setting" width="24.000000" height="24.000000" fill="white" fill-opacity="0"/>
		</clipPath>
	</defs>
	<g clip-path="url(#clip25_6415)">
		<path id="矢量 13" d="M8.15 2.68C8.28 2.12 8.51 1.7 8.86 1.42C9.22 1.14 9.68 1 10.26 1L13.73 1C14.31 1 14.77 1.14 15.13 1.42C15.48 1.7 15.71 2.12 15.84 2.68L16.2 4.27L16.84 4.64L18.4 4.16C18.94 3.99 19.43 3.98 19.84 4.14C20.26 4.31 20.62 4.64 20.91 5.14L22.64 8.14C22.93 8.64 23.04 9.12 22.98 9.56C22.91 10 22.66 10.42 22.24 10.81L21.04 11.92L21.04 12.65L22.24 13.77C22.66 14.16 22.91 14.57 22.98 15.02C23.04 15.46 22.93 15.93 22.64 16.43L20.91 19.44C20.62 19.94 20.26 20.27 19.84 20.44C19.42 20.6 18.94 20.59 18.4 20.42L16.83 19.94L16.2 20.3L15.84 21.9C15.71 22.46 15.47 22.88 15.12 23.16C14.77 23.45 14.3 23.59 13.73 23.59L10.26 23.59C9.68 23.59 9.22 23.45 8.87 23.16C8.52 22.88 8.28 22.46 8.15 21.9L7.79 20.3L7.15 19.94L5.59 20.42C5.05 20.59 4.56 20.6 4.15 20.43C3.73 20.27 3.37 19.94 3.08 19.44L1.35 16.43C1.06 15.93 0.95 15.46 1.01 15.02C1.08 14.57 1.33 14.16 1.75 13.77L2.95 12.66L2.95 11.92L1.75 10.81C1.33 10.42 1.08 10 1.01 9.56C0.95 9.11 1.06 8.64 1.35 8.14L3.08 5.14C3.37 4.64 3.73 4.3 4.15 4.14C4.57 3.98 5.05 3.99 5.59 4.16L7.15 4.64L7.79 4.26L8.15 2.68ZM9.79 2.58C9.68 2.67 9.6 2.81 9.56 3L9.13 4.89C9.11 4.99 9.07 5.08 9.01 5.16C8.95 5.24 8.87 5.3 8.79 5.35L7.59 6.04C7.51 6.09 7.41 6.12 7.31 6.13C7.21 6.14 7.12 6.14 7.02 6.11L5.17 5.53C4.98 5.48 4.82 5.48 4.68 5.53C4.54 5.58 4.43 5.69 4.33 5.86L2.59 8.86C2.5 9.03 2.46 9.19 2.48 9.34C2.51 9.48 2.59 9.62 2.73 9.75L4.16 11.07C4.23 11.14 4.29 11.22 4.33 11.31C4.37 11.41 4.39 11.5 4.39 11.6L4.39 12.97C4.39 13.07 4.37 13.17 4.33 13.26C4.29 13.35 4.23 13.43 4.16 13.5L2.73 14.82C2.59 14.95 2.51 15.09 2.48 15.24C2.46 15.39 2.5 15.55 2.59 15.71L4.33 18.72C4.43 18.88 4.54 18.99 4.68 19.05C4.82 19.1 4.98 19.1 5.16 19.04L7.03 18.47C7.13 18.44 7.22 18.43 7.32 18.44C7.42 18.45 7.52 18.48 7.61 18.53L8.78 19.21C8.87 19.26 8.94 19.33 9 19.41C9.06 19.49 9.1 19.58 9.12 19.68L9.56 21.58C9.6 21.77 9.68 21.91 9.8 22C9.91 22.1 10.07 22.14 10.26 22.14L13.73 22.14C13.92 22.14 14.08 22.1 14.19 22C14.31 21.91 14.39 21.77 14.43 21.58L14.87 19.67C14.89 19.58 14.93 19.49 14.99 19.41C15.05 19.32 15.12 19.26 15.21 19.21L16.38 18.53C16.47 18.48 16.56 18.45 16.66 18.44C16.76 18.43 16.86 18.44 16.95 18.47L18.82 19.04C19.01 19.1 19.17 19.1 19.31 19.05C19.45 18.99 19.56 18.88 19.66 18.72L21.4 15.71C21.49 15.55 21.53 15.39 21.51 15.24C21.48 15.09 21.4 14.95 21.26 14.83L19.83 13.5C19.75 13.43 19.7 13.35 19.66 13.26C19.62 13.17 19.6 13.07 19.6 12.97L19.6 11.61C19.6 11.51 19.62 11.41 19.66 11.32C19.7 11.23 19.75 11.15 19.83 11.08L21.26 9.75C21.4 9.62 21.48 9.48 21.51 9.34C21.53 9.19 21.49 9.03 21.4 8.86L19.66 5.86Q19.52 5.61 19.31 5.53L19.31 5.53C19.17 5.47 19.01 5.48 18.83 5.53L16.96 6.11C16.87 6.14 16.77 6.14 16.67 6.13C16.57 6.12 16.48 6.09 16.39 6.04L15.2 5.36C15.12 5.31 15.04 5.24 14.98 5.16C14.92 5.08 14.88 4.99 14.86 4.89L14.43 2.99C14.39 2.81 14.31 2.67 14.2 2.58C14.08 2.49 13.92 2.44 13.73 2.44L10.26 2.44C10.07 2.44 9.91 2.48 9.79 2.58ZM12 7.24C9.21 7.24 6.95 9.5 6.95 12.29C6.95 15.08 9.21 17.34 12 17.34C14.78 17.34 17.04 15.08 17.04 12.29C17.04 9.5 14.78 7.24 12 7.24ZM12 8.69C10.01 8.69 8.39 10.3 8.39 12.29C8.39 14.28 10.01 15.9 12 15.9C13.99 15.9 15.6 14.28 15.6 12.29C15.6 10.3 13.99 8.69 12 8.69Z" fill="#191919" fill-opacity="1.000000" fill-rule="evenodd"/>
	</g>
</svg>
