<svg width="24.000000" height="24.000000" viewBox="0 0 24 24" fill="none" xmlns="http://www.w3.org/2000/svg" xmlns:xlink="http://www.w3.org/1999/xlink">
	<desc>
			Created with Pixso.
	</desc>
	<defs>
		<clipPath id="clip238_12324">
			<rect id="ic_public_telephone" width="24.000000" height="24.000000" fill="white" fill-opacity="0"/>
		</clipPath>
	</defs>
	<g clip-path="url(#clip238_12324)">
		<path id="path4" d="M3.98 9.32C3.5 8.04 3.17 6.41 3 4.44C3 4.4 3 4.36 3 4.33C3 3.59 3.59 3 4.33 3L6.89 3C7.54 3 8.1 3.47 8.2 4.11C8.31 4.78 8.41 5.32 8.51 5.72C8.65 6.32 8.93 7.22 9.33 8.42C9.24 9.34 8.93 9.85 8.38 9.97C9.26 13.73 13.91 16.15 14.02 15.61C14.14 15.06 14.66 14.75 15.57 14.66C16.77 15.06 17.67 15.34 18.27 15.48C18.67 15.58 19.21 15.68 19.88 15.79C20.52 15.89 20.99 16.45 20.99 17.1L21 19.66C20.99 20.4 20.4 20.99 19.66 21C19.63 21 19.59 20.99 19.55 20.99C17.58 20.82 15.95 20.49 14.67 20.01C8.98 18.14 5.41 14.58 3.98 9.32Z" fill="#62B42E" fill-opacity="1.000000" fill-rule="evenodd"/>
	</g>
</svg>
