<svg width="16.000000" height="16.000000" viewBox="0 0 16 16" fill="none" xmlns="http://www.w3.org/2000/svg" xmlns:xlink="http://www.w3.org/1999/xlink">
	<desc>
			Created with Pixso.
	</desc>
	<defs>
		<clipPath id="clip38_4967">
			<rect id="icon_说明" width="16.000000" height="16.000000" fill="white" fill-opacity="0"/>
		</clipPath>
	</defs>
	<g clip-path="url(#clip38_4967)">
		<g opacity="0.000000">
			<rect id="rect" x="-1.000000" width="17.000000" height="16.000000" fill="#000000" fill-opacity="1.000000"/>
		</g>
		<ellipse id="椭圆 88" cx="8.000000" cy="8.000000" rx="8.000001" ry="8.000000" fill="#000000" fill-opacity="0.098039"/>
		<path id="path" d="M7.89 10.33C7.65 10.33 7.44 10.42 7.26 10.58C7.09 10.74 7 10.93 7 11.16C7 11.39 7.09 11.58 7.26 11.75C7.44 11.91 7.65 12 7.89 12C8.13 12 8.34 11.91 8.51 11.75C8.68 11.58 8.76 11.39 8.76 11.16C8.76 10.93 8.68 10.74 8.51 10.58C8.34 10.42 8.13 10.33 7.89 10.33ZM7.89 9.68C8.02 9.68 8.13 9.64 8.22 9.55C8.31 9.46 8.37 9.36 8.39 9.24L8.76 4.9C8.78 4.65 8.71 4.44 8.54 4.27C8.36 4.09 8.15 4 7.89 4C7.63 4 7.41 4.09 7.23 4.27C7.06 4.44 6.98 4.65 7 4.9L7.39 9.24C7.4 9.36 7.45 9.46 7.55 9.55C7.65 9.64 7.76 9.68 7.89 9.68Z" fill="#191919" fill-opacity="1.000000" fill-rule="nonzero"/>
	</g>
</svg>
