<svg width="24.000000" height="24.000000" viewBox="0 0 24 24" fill="none" xmlns="http://www.w3.org/2000/svg" xmlns:xlink="http://www.w3.org/1999/xlink">
	<desc>
			Created with Pixso.
	</desc>
	<defs>
		<clipPath id="clip72_2226">
			<rect width="24.000000" height="24.000000" fill="white" fill-opacity="0"/>
		</clipPath>
	</defs>
	<g clip-path="url(#clip72_2226)">
		<g opacity="0.000000">
			<rect width="24.000000" height="24.000000" fill="#D8D8D8" fill-opacity="1.000000"/>
			<rect width="24.000000" height="24.000000" stroke="#000000" stroke-opacity="0" stroke-width="1.000000"/>
		</g>
		<path d="M12.07 3.5C14.05 3.5 16.01 3.77 17.94 4.33C18.93 4.62 19.71 5.32 20.08 6.25L20.15 6.45L21.19 9.9C20.59 9.51 19.92 9.21 19.21 9.02L18.57 6.91C18.41 6.41 18 6.01 17.47 5.86C15.69 5.35 13.89 5.09 12.07 5.09C10.25 5.09 8.41 5.34 6.54 5.86C6.03 6 5.63 6.36 5.45 6.84L5.4 6.98L4.44 10.48C7.43 10.19 9.89 10.03 11.62 10.02L11.94 10.01L12.19 10.02C12.6 10.02 13.06 10.03 13.57 10.05C12.15 11.07 11.16 12.64 10.94 14.43L8.69 14.43L8.58 14.44C8.18 14.49 7.87 14.82 7.87 15.23C7.87 15.63 8.18 15.97 8.58 16.02L8.69 16.03L10.95 16.03C11.12 17.28 11.67 18.42 12.49 19.34L6.58 19.34L6.26 20.02C6.16 20.23 5.97 20.39 5.75 20.46L5.63 20.48L5.51 20.49L2.3 20.49C1.9 20.49 1.57 20.23 1.49 19.87L1.47 19.76L1 13.94C0.9 12.69 1.56 11.56 2.6 10.96L3.8 6.58C4.1 5.49 4.97 4.63 6.09 4.33C8.1 3.77 10.1 3.5 12.07 3.5ZM5.94 14.43L4.73 14.43C4.33 14.48 3.91 14.82 3.91 15.22C3.91 15.63 4.22 15.96 4.62 16.01L4.73 16.02L5.94 16.02L6.06 16.01C6.46 15.96 6.77 15.63 6.77 15.22C6.77 14.78 6.4 14.43 5.94 14.43Z" fill="#000000" fill-opacity="0.898039" fill-rule="evenodd"/>
		<path d="M17.49 10.08C20.48 10.08 22.91 12.51 22.91 15.5C22.91 18.48 20.48 20.91 17.49 20.91C14.51 20.91 12.08 18.48 12.08 15.5C12.08 12.51 14.51 10.08 17.49 10.08ZM19.13 12.17C18.94 12.05 18.69 12.11 18.57 12.3L17.49 14.04L16.42 12.3C16.3 12.11 16.05 12.05 15.86 12.17C15.67 12.29 15.61 12.54 15.73 12.73L16.85 14.55L15.6 14.55C15.37 14.55 15.19 14.73 15.19 14.95C15.19 15.18 15.37 15.36 15.6 15.36L17.09 15.36L17.09 15.9L15.6 15.9C15.37 15.9 15.19 16.08 15.19 16.31C15.19 16.53 15.37 16.71 15.6 16.71L17.09 16.71L17.09 18.47C17.09 18.7 17.27 18.88 17.49 18.88C17.72 18.88 17.9 18.7 17.9 18.47L17.9 16.71L19.39 16.71C19.62 16.71 19.8 16.53 19.8 16.31C19.8 16.08 19.62 15.9 19.39 15.9L17.9 15.9L17.9 15.36L19.39 15.36C19.62 15.36 19.8 15.18 19.8 14.95C19.8 14.73 19.62 14.55 19.39 14.55L18.14 14.55L19.26 12.73C19.38 12.54 19.32 12.29 19.13 12.17Z" fill="#000000" fill-opacity="0.898039" fill-rule="evenodd"/>
	</g>
</svg>
