<svg width="16.000000" height="16.000000" viewBox="0 0 16 16" fill="none" xmlns="http://www.w3.org/2000/svg" xmlns:xlink="http://www.w3.org/1999/xlink">
	<desc>
			Created with Pixso.
	</desc>
	<defs>
		<clipPath id="clip86_1508">
			<rect width="16.000000" height="16.000000" fill="white" fill-opacity="0"/>
		</clipPath>
	</defs>
	<g clip-path="url(#clip86_1508)">
		<g opacity="0.000000">
			<rect width="16.000000" height="16.000000" fill="#D8D8D8" fill-opacity="1.000000"/>
			<rect width="16.000000" height="16.000000" stroke="#000000" stroke-opacity="0" stroke-width="1.000000"/>
		</g>
		<path d="M7.33 2.5C7.88 2.44 8.36 2.84 8.4 3.39L8.41 3.46L8.41 7.81L9.82 9.22C9.97 9.37 9.98 9.6 9.86 9.76C9.71 9.91 9.44 9.97 9.28 9.85L7.7 8.27C7.64 8.21 7.6 8.13 7.59 8.04L7.58 7.98L7.58 3.46C7.58 3.38 7.51 3.31 7.43 3.32C5.09 3.61 3.32 5.6 3.32 7.98C3.32 10.62 5.49 12.74 8.13 12.67C10.59 12.6 12.64 10.51 12.67 8.03C12.69 5.89 11.28 4.03 9.26 3.46C9.04 3.4 8.91 3.17 8.97 2.95C9.04 2.73 9.26 2.6 9.48 2.67C11.86 3.33 13.52 5.53 13.49 8.04C13.46 10.96 11.06 13.41 8.15 13.49C5.05 13.58 2.5 11.08 2.5 7.98C2.5 5.18 4.58 2.84 7.33 2.5Z" fill="#000000" fill-opacity="0.600000" fill-rule="evenodd"/>
		<path d="M8.4 3.39L8.41 3.46L8.41 7.81L9.82 9.22C9.97 9.37 9.98 9.6 9.86 9.76C9.71 9.91 9.44 9.97 9.28 9.85L7.7 8.27C7.64 8.21 7.6 8.13 7.59 8.04L7.58 7.98L7.58 3.46C7.58 3.38 7.51 3.31 7.43 3.32C5.09 3.61 3.32 5.6 3.32 7.98C3.32 10.62 5.49 12.74 8.13 12.67C10.59 12.6 12.64 10.51 12.67 8.03C12.69 5.89 11.28 4.03 9.26 3.46C9.04 3.4 8.91 3.17 8.97 2.95C9.04 2.73 9.26 2.6 9.48 2.67C11.86 3.33 13.52 5.53 13.49 8.04C13.46 10.96 11.06 13.41 8.15 13.49C5.05 13.58 2.5 11.08 2.5 7.98C2.5 5.18 4.58 2.84 7.33 2.5C7.88 2.44 8.36 2.84 8.4 3.39Z" stroke="#000000" stroke-opacity="0" stroke-width="1.000000"/>
	</g>
</svg>
