<svg width="16.000000" height="16.000000" viewBox="0 0 16 16" fill="none" xmlns="http://www.w3.org/2000/svg" xmlns:xlink="http://www.w3.org/1999/xlink">
	<desc>
			Created with Pixso.
	</desc>
	<defs>
		<clipPath id="clip104_4442">
			<rect width="16.000000" height="16.000000" fill="white" fill-opacity="0"/>
		</clipPath>
	</defs>
	<g clip-path="url(#clip104_4442)">
		<path d="M1.52 3.36L4.65 3.36L5.12 2.1C5.16 2.01 5.2 1.91 5.25 1.83C5.29 1.76 5.33 1.71 5.38 1.65C5.43 1.58 5.49 1.52 5.55 1.46C5.61 1.4 5.68 1.35 5.75 1.3C5.82 1.25 5.89 1.21 5.97 1.17C6.04 1.13 6.12 1.1 6.2 1.07C6.28 1.05 6.36 1.03 6.44 1.02C6.53 1 6.62 1 6.72 1L9.2 1C9.3 1 9.39 1 9.49 1.02C9.57 1.03 9.64 1.05 9.72 1.07C9.8 1.1 9.88 1.13 9.96 1.17C10.03 1.21 10.11 1.25 10.18 1.3C10.25 1.35 10.32 1.4 10.38 1.46C10.44 1.52 10.5 1.58 10.55 1.65C10.6 1.71 10.64 1.78 10.68 1.85C10.73 1.93 10.77 2.02 10.8 2.11L11.27 3.36L14.47 3.36C14.76 3.36 15 3.59 15 3.89C15 4.18 14.76 4.42 14.47 4.42L10.9 4.42C10.79 4.42 10.69 4.38 10.6 4.32C10.51 4.26 10.44 4.18 10.4 4.07L9.81 2.47C9.78 2.41 9.75 2.35 9.71 2.3C9.67 2.25 9.63 2.21 9.57 2.17C9.52 2.13 9.47 2.1 9.41 2.09C9.34 2.06 9.28 2.05 9.2 2.05L6.72 2.05C6.65 2.05 6.58 2.06 6.52 2.08C6.46 2.1 6.4 2.13 6.35 2.17C6.3 2.21 6.25 2.25 6.21 2.3C6.17 2.35 6.14 2.41 6.11 2.47L5.51 4.07C5.48 4.18 5.41 4.26 5.32 4.32C5.23 4.38 5.13 4.42 5.02 4.42L1.52 4.42C1.23 4.42 1 4.18 1 3.89C1 3.59 1.23 3.36 1.52 3.36ZM13.72 5.2L13.07 12.89C13.06 13.05 13.03 13.2 12.98 13.35C12.95 13.48 12.9 13.6 12.84 13.72C12.78 13.84 12.71 13.96 12.63 14.06C12.54 14.18 12.45 14.29 12.34 14.39C12.23 14.49 12.11 14.58 11.99 14.65C11.88 14.72 11.76 14.78 11.63 14.83C11.5 14.88 11.38 14.92 11.25 14.95C11.1 14.98 10.94 15 10.78 15L5.2 15C5.05 15 4.89 14.98 4.74 14.95C4.61 14.92 4.48 14.88 4.36 14.83C4.23 14.78 4.11 14.72 4 14.65C3.87 14.58 3.76 14.49 3.65 14.39C3.54 14.29 3.44 14.18 3.36 14.06C3.28 13.96 3.21 13.84 3.15 13.72C3.09 13.6 3.04 13.48 3 13.35C2.96 13.2 2.93 13.05 2.92 12.89L2.27 5.2L3.34 5.2L3.97 12.8C3.98 12.89 4 12.98 4.02 13.07C4.04 13.13 4.07 13.19 4.1 13.25C4.13 13.31 4.16 13.37 4.2 13.43C4.25 13.49 4.31 13.55 4.37 13.61C4.43 13.67 4.49 13.71 4.56 13.76C4.62 13.79 4.68 13.82 4.75 13.85C4.81 13.87 4.87 13.89 4.94 13.91C5.03 13.93 5.11 13.94 5.2 13.94L10.78 13.94C10.87 13.94 10.96 13.93 11.05 13.91C11.11 13.89 11.18 13.87 11.24 13.85C11.3 13.82 11.37 13.79 11.43 13.76C11.49 13.71 11.56 13.67 11.62 13.61C11.68 13.55 11.73 13.49 11.78 13.43C11.82 13.37 11.86 13.31 11.89 13.25C11.92 13.19 11.94 13.13 11.96 13.07C11.99 12.98 12.01 12.89 12.01 12.8L12.65 5.2L13.72 5.2ZM7.05 7.26L7.05 12.44C7.05 12.73 6.82 12.97 6.52 12.97C6.23 12.97 6 12.73 6 12.44L6 7.26C6 6.96 6.23 6.73 6.52 6.73C6.82 6.73 7.05 6.96 7.05 7.26ZM10 7.26C10 6.96 9.76 6.73 9.47 6.73C9.17 6.73 8.94 6.96 8.94 7.26L8.94 12.44C8.94 12.73 9.17 12.97 9.47 12.97C9.76 12.97 10 12.73 10 12.44L10 7.26Z" fill="#E84026" fill-opacity="1.000000" fill-rule="evenodd"/>
	</g>
</svg>
