<svg width="16.000000" height="16.000000" viewBox="0 0 16 16" fill="none" xmlns="http://www.w3.org/2000/svg" xmlns:xlink="http://www.w3.org/1999/xlink">
	<desc>
			Created with Pixso.
	</desc>
	<defs/>
	<path d="M14.5 2L1.5 2C1.22388 2 1 2.22386 1 2.5C1 2.77614 1.22388 3 1.5 3L14.5 3C14.7761 3 15 2.77614 15 2.5C15 2.22386 14.7761 2 14.5 2ZM1.5 7L14.5 7C14.7761 7 15 7.22386 15 7.5C15 7.77614 14.7761 8 14.5 8L1.5 8C1.22388 8 1 7.77614 1 7.5C1 7.22386 1.22388 7 1.5 7ZM14.5 12L1.5 12C1.22388 12 1 12.2239 1 12.5C1 12.7761 1.22388 13 1.5 13L14.5 13C14.7761 13 15 12.7761 15 12.5C15 12.2239 14.7761 12 14.5 12Z" clip-rule="evenodd" fill="#000000" fill-opacity="0.600000" fill-rule="evenodd"/>
</svg>
