<svg width="16.000000" height="16.000000" viewBox="0 0 16 16" fill="none" xmlns="http://www.w3.org/2000/svg" xmlns:xlink="http://www.w3.org/1999/xlink">
	<desc>
			Created with Pixso.
	</desc>
	<defs>
		<clipPath id="clip72_2294">
			<rect width="16.000000" height="16.000000" fill="white" fill-opacity="0"/>
		</clipPath>
	</defs>
	<g clip-path="url(#clip72_2294)">
		<path d="M12.65 1.81C13.36 1.81 13.94 2.39 13.94 3.1L13.94 7.87C13.27 7.44 12.49 7.22 11.69 7.22C9.39 7.22 7.52 9.08 7.52 11.36C7.52 12.64 8.1 13.78 9.03 14.54L2.37 14.54C1.66 14.54 1.08 13.96 1.08 13.25L1.08 3.1C1.08 2.39 1.66 1.81 2.37 1.81L12.65 1.81ZM6.01 3.88L3.82 3.88C3.28 3.88 3.04 3.99 3.02 4.46L3.02 11.76C3.01 12.16 3.33 12.48 3.73 12.49C4.12 12.5 4.44 12.2 4.46 11.81L4.46 8.82L6.01 8.82C7.37 8.82 8.47 7.72 8.47 6.36C8.47 5 7.37 3.88 6.01 3.88ZM6 5.32C6.56 5.32 7.03 5.78 7.03 6.36C7.03 6.9 6.6 7.35 6.06 7.38L4.46 7.38L4.46 5.32L6 5.32Z" fill="#FFFFFF" fill-opacity="1.000000" fill-rule="nonzero"/>
		<path d="M11.69 8.18C9.91 8.18 8.47 9.6 8.47 11.36C8.47 13.12 9.91 14.55 11.69 14.55C13.47 14.55 14.91 13.12 14.91 11.36C14.91 9.6 13.47 8.18 11.69 8.18ZM12.82 12.32L12.01 12.32L12.01 13.15C11.99 13.31 11.86 13.43 11.7 13.43C11.52 13.43 11.38 13.28 11.37 13.11L11.37 12.32L10.52 12.32C10.36 12.29 10.24 12.16 10.24 12C10.24 11.83 10.39 11.68 10.56 11.68L11.37 11.68L11.37 11.2L10.52 11.2C10.36 11.18 10.24 11.05 10.24 10.89C10.24 10.72 10.39 10.57 10.56 10.57L10.97 10.57L10.48 9.75L10.47 9.71C10.4 9.56 10.46 9.4 10.6 9.32L10.64 9.3C10.78 9.23 10.96 9.3 11.04 9.43L11.69 10.54L11.71 10.56L11.76 10.56L11.77 10.54L12.43 9.43L12.45 9.4C12.54 9.29 12.69 9.25 12.83 9.31L12.87 9.32L12.88 9.33L12.91 9.35C13.02 9.44 13.05 9.59 13 9.71L12.99 9.75L12.5 10.58L12.88 10.58C13.04 10.6 13.15 10.73 13.15 10.89C13.15 11.07 13.01 11.21 12.84 11.21L12.03 11.21L12.03 11.69L12.88 11.69C13.04 11.72 13.16 11.84 13.16 12C13.14 12.17 13 12.32 12.82 12.32Z" fill="#FFFFFF" fill-opacity="1.000000" fill-rule="nonzero"/>
	</g>
</svg>
