<svg width="24.000000" height="24.000000" viewBox="0 0 24 24" fill="none" xmlns="http://www.w3.org/2000/svg" xmlns:xlink="http://www.w3.org/1999/xlink">
	<desc>
			Created with Pixso.
	</desc>
	<defs>
		<clipPath id="clip54_451">
			<rect width="24.000000" height="24.000000" fill="white" fill-opacity="0"/>
		</clipPath>
	</defs>
	<g clip-path="url(#clip54_451)">
		<rect width="24.000000" height="24.000000" fill="#000000" fill-opacity="0"/>
		<rect width="24.000000" height="24.000000" stroke="#000000" stroke-opacity="0" stroke-width="1.000000"/>
		<path d="M12 2C14.68 2 17.2 3.06 19.07 4.92C19.37 5.22 19.37 5.71 19.07 6.01C18.77 6.31 18.28 6.31 17.98 6.01C16.4 4.43 14.27 3.53 12 3.53C7.32 3.53 3.53 7.32 3.53 12C3.53 16.67 7.32 20.46 12 20.46C16.67 20.46 20.46 16.67 20.46 12C20.46 10.66 20.15 9.37 19.56 8.2C19.37 7.82 19.52 7.36 19.9 7.17C20.28 6.98 20.74 7.13 20.94 7.51C21.63 8.89 22 10.42 22 12C22 17.52 17.52 22 12 22C6.47 22 2 17.52 2 12C2 6.47 6.47 2 12 2ZM12.65 7.25C14.36 7.25 15.75 8.63 15.75 10.34C15.75 12 14.45 13.35 12.82 13.44L12.65 13.44L10.75 13.44L10.75 16C10.75 16.37 10.46 16.69 10.1 16.74L10 16.75C9.62 16.75 9.3 16.46 9.25 16.1L9.25 16L9.25 8C9.25 7.62 9.53 7.3 9.89 7.25L10 7.25L12.65 7.25ZM12.65 8.75L10.75 8.75L10.75 11.94L12.65 11.94C13.53 11.94 14.25 11.23 14.25 10.34C14.25 9.51 13.61 8.82 12.79 8.75L12.65 8.75Z" fill="#387BF1" fill-opacity="1.000000" fill-rule="nonzero"/>
		<path d="M19.07 4.92C19.37 5.22 19.37 5.71 19.07 6.01C18.77 6.31 18.28 6.31 17.98 6.01C16.4 4.43 14.27 3.53 12 3.53C7.32 3.53 3.53 7.32 3.53 12C3.53 16.67 7.32 20.46 12 20.46C16.67 20.46 20.46 16.67 20.46 12C20.46 10.66 20.15 9.37 19.56 8.2C19.37 7.82 19.52 7.36 19.9 7.17C20.28 6.98 20.74 7.13 20.94 7.51C21.63 8.89 22 10.42 22 12C22 17.52 17.52 22 12 22C6.47 22 2 17.52 2 12C2 6.47 6.47 2 12 2C14.68 2 17.2 3.06 19.07 4.92ZM15.75 10.34C15.75 12 14.45 13.35 12.82 13.44L12.65 13.44L10.75 13.44L10.75 16C10.75 16.37 10.46 16.69 10.1 16.74L10 16.75C9.62 16.75 9.3 16.46 9.25 16.1L9.25 16L9.25 8C9.25 7.62 9.53 7.3 9.89 7.25L10 7.25L12.65 7.25C14.36 7.25 15.75 8.63 15.75 10.34ZM10.75 8.75L10.75 11.94L12.65 11.94C13.53 11.94 14.25 11.23 14.25 10.34C14.25 9.51 13.61 8.82 12.79 8.75L12.65 8.75L10.75 8.75Z" stroke="#000000" stroke-opacity="0" stroke-width="1.000000"/>
	</g>
</svg>
