<svg width="32.000000" height="32.000000" viewBox="0 0 32 32" fill="none" xmlns="http://www.w3.org/2000/svg" xmlns:xlink="http://www.w3.org/1999/xlink">
	<desc>
			Created with Pixso.
	</desc>
	<defs>
		<clipPath id="clip100_2969">
			<rect width="32.000000" height="32.000000" fill="white" fill-opacity="0"/>
		</clipPath>
	</defs>
	<g clip-path="url(#clip100_2969)">
		<circle cx="16.000000" cy="16.000000" r="16.000000" fill="#FFFFFF" fill-opacity="1.000000"/>
		<path d="M22.48 9C22.63 9.08 22.77 9.19 22.9 9.31C23.02 9.43 23.13 9.56 23.22 9.71C23.31 9.85 23.38 10.01 23.43 10.18L24.95 15.24C25.03 15.3 25.11 15.35 25.19 15.42C25.29 15.5 25.4 15.61 25.49 15.71C25.58 15.82 25.66 15.94 25.73 16.06C25.79 16.17 25.84 16.29 25.88 16.41C25.92 16.53 25.95 16.65 25.97 16.78C25.99 16.92 26 17.07 25.99 17.21L25.69 22.69C25.68 22.79 25.66 22.88 25.64 22.97C25.62 23.05 25.59 23.13 25.55 23.2C25.51 23.28 25.47 23.35 25.42 23.42C25.37 23.49 25.31 23.56 25.24 23.62C25.17 23.68 25.1 23.73 25.02 23.78C24.95 23.82 24.87 23.86 24.79 23.89C24.71 23.93 24.63 23.95 24.54 23.97C24.45 23.99 24.35 24 24.25 24L21.61 24C21.51 24 21.41 23.97 21.32 23.92C21.23 23.87 21.16 23.8 21.11 23.72L20.41 22.55L11.58 22.55L10.88 23.72C10.83 23.8 10.76 23.87 10.67 23.92C10.62 23.95 10.58 23.96 10.53 23.98C10.48 23.99 10.43 24 10.38 24L7.74 24C7.64 24 7.54 23.99 7.45 23.97C7.36 23.95 7.28 23.93 7.2 23.89C7.12 23.86 7.04 23.82 6.97 23.78C6.89 23.73 6.82 23.68 6.75 23.62C6.68 23.56 6.62 23.49 6.57 23.42C6.52 23.35 6.48 23.28 6.44 23.2C6.4 23.13 6.37 23.05 6.35 22.97C6.33 22.88 6.31 22.79 6.3 22.69L6 17.21C5.99 17.07 6 16.92 6.02 16.78C6.04 16.66 6.07 16.53 6.11 16.41C6.15 16.29 6.2 16.17 6.26 16.06C6.33 15.94 6.41 15.82 6.5 15.71C6.59 15.61 6.69 15.51 6.8 15.42C6.88 15.36 6.96 15.3 7.04 15.24L8.56 10.18C8.61 10.01 8.68 9.85 8.77 9.71C8.86 9.56 8.97 9.43 9.09 9.31C9.22 9.19 9.36 9.09 9.51 9C9.66 8.92 9.82 8.85 10 8.8C12 8.26 14 8 16 8C16.03 8 16.07 8 16.11 8C18.07 8 20.03 8.27 21.99 8.8C22.16 8.85 22.32 8.91 22.48 9ZM8.83 14.78C11.47 14.4 13.86 14.2 16 14.2C18.13 14.2 20.52 14.4 23.16 14.78L21.91 10.59C21.9 10.55 21.88 10.51 21.86 10.48C21.84 10.44 21.81 10.41 21.78 10.38C21.75 10.35 21.72 10.33 21.68 10.31C21.64 10.29 21.6 10.27 21.56 10.26C19.71 9.76 17.85 9.51 16 9.51C14.14 9.51 12.29 9.76 10.43 10.26C10.39 10.27 10.35 10.29 10.32 10.3C10.28 10.33 10.24 10.35 10.21 10.38C10.18 10.41 10.15 10.45 10.13 10.48C10.11 10.52 10.09 10.55 10.08 10.59L8.83 14.78ZM8.65 20.27L11.24 20.27C11.57 20.27 11.82 20.03 11.82 19.72C11.82 19.41 11.56 19.17 11.24 19.17L8.65 19.17C8.33 19.17 8.08 19.42 8.08 19.73C8.08 20.03 8.33 20.27 8.65 20.27ZM19.02 20.27L12.97 20.27C12.65 20.27 12.4 20.03 12.4 19.72C12.4 19.42 12.65 19.17 12.97 19.17L19.02 19.17C19.34 19.17 19.59 19.41 19.59 19.72C19.59 20.03 19.34 20.27 19.02 20.27ZM20.75 20.27L23.34 20.27C23.66 20.27 23.91 20.03 23.91 19.72C23.91 19.41 23.66 19.17 23.34 19.17L20.75 19.17C20.42 19.17 20.17 19.42 20.17 19.73C20.17 20.03 20.43 20.27 20.75 20.27Z" fill="#0A59F7" fill-opacity="1.000000" fill-rule="evenodd"/>
	</g>
</svg>
