<svg width="16.000000" height="16.000000" viewBox="0 0 16 16" fill="none" xmlns="http://www.w3.org/2000/svg" xmlns:xlink="http://www.w3.org/1999/xlink">
	<desc>
			Created with Pixso.
	</desc>
	<defs>
		<clipPath id="clip53_715">
			<rect width="16.000000" height="16.000000" fill="white" fill-opacity="0"/>
		</clipPath>
	</defs>
	<g clip-path="url(#clip53_715)">
		<path d="M14.77 13.33L1.23 13.33C0.55 13.33 0 12.77 0 12.08L0 3.92C0 3.23 0.55 2.67 1.23 2.67L14.77 2.67C15.45 2.67 16 3.23 16 3.92L16 12.08C16 12.77 15.45 13.33 14.77 13.33ZM15.38 4.55C15.38 3.85 14.83 3.29 14.15 3.29L1.85 3.29C1.16 3.29 0.62 3.85 0.62 4.55L0.62 11.45C0.62 12.14 1.16 12.7 1.85 12.7L14.16 12.7C14.84 12.7 15.39 12.14 15.39 11.45L15.38 4.55ZM13.54 12.08L2.46 12.08C1.78 12.08 1.23 11.52 1.23 10.83L1.23 5.17C1.23 4.48 1.78 3.92 2.46 3.92L13.54 3.92C14.22 3.92 14.77 4.48 14.77 5.17L14.77 10.82C14.77 11.51 14.22 12.08 13.54 12.08ZM3.08 5.17C2.74 5.17 2.46 5.45 2.46 5.8C2.46 6.15 2.73 6.43 3.08 6.43C3.42 6.43 3.7 6.15 3.7 5.8C3.69 5.46 3.42 5.18 3.08 5.17ZM3.08 9.57C2.74 9.57 2.46 9.85 2.46 10.2C2.46 10.55 2.73 10.83 3.08 10.83C3.42 10.83 3.7 10.55 3.7 10.2C3.7 9.85 3.42 9.57 3.08 9.57ZM12.92 10.82C13.26 10.82 13.54 10.54 13.54 10.19C13.54 10.03 13.48 9.87 13.36 9.75C13.24 9.63 13.09 9.57 12.92 9.56C12.76 9.56 12.6 9.63 12.48 9.73C12.36 9.85 12.3 10.02 12.3 10.18C12.3 10.54 12.58 10.82 12.92 10.82ZM12.92 5.17C12.58 5.17 12.3 5.45 12.3 5.8C12.3 6.15 12.58 6.43 12.92 6.43C13.08 6.43 13.24 6.35 13.36 6.25C13.48 6.13 13.54 5.97 13.54 5.81C13.54 5.46 13.26 5.18 12.92 5.17Z" fill="#000000" fill-opacity="0.600000" fill-rule="nonzero"/>
	</g>
</svg>
