<svg width="16.000000" height="16.000000" viewBox="0 0 16 16" fill="none" xmlns="http://www.w3.org/2000/svg" xmlns:xlink="http://www.w3.org/1999/xlink">
	<desc>
			Created with Pixso.
	</desc>
	<defs>
		<clipPath id="clip56_674">
			<rect width="16.000000" height="16.000000" fill="white" fill-opacity="0"/>
		</clipPath>
	</defs>
	<g clip-path="url(#clip56_674)">
		<path d="M11.55 14C11.35 14 11.13 13.94 10.93 13.84L8 12.43L5.05 13.84C4.86 13.94 4.65 13.99 4.43 13.99C4.14 13.99 3.87 13.9 3.64 13.74C3.23 13.44 3.02 12.93 3.12 12.45L3.72 9.44L1.4 7.36C1.05 7.01 0.91 6.51 1.05 6.03L1.05 6.02C1.22 5.53 1.64 5.19 2.15 5.12L5.36 4.56L6.8 1.73C7.03 1.28 7.5 1 8 1C8.52 1 9 1.29 9.2 1.74L10.64 4.56L13.85 5.1C14.36 5.17 14.79 5.52 14.93 6C15.09 6.47 14.95 6.99 14.59 7.34L14.58 7.35L12.28 9.44L12.86 12.46C12.96 12.95 12.75 13.43 12.34 13.74C12.11 13.9 11.83 14 11.55 14Z" fill="#707070" fill-opacity="1.000000" fill-rule="nonzero"/>
	</g>
</svg>
