<svg width="16.000000" height="16.000000" viewBox="0 0 16 16" fill="none" xmlns="http://www.w3.org/2000/svg" xmlns:xlink="http://www.w3.org/1999/xlink">
	<desc>
			Created with Pixso.
	</desc>
	<defs>
		<clipPath id="clip53_718">
			<rect width="16.000000" height="16.000000" fill="white" fill-opacity="0"/>
		</clipPath>
	</defs>
	<g clip-path="url(#clip53_718)">
		<path d="M12.94 2.05L10.96 2.05C10.77 1.44 10.2 0.99 9.53 0.99L6.49 0.99C5.82 0.99 5.25 1.44 5.06 2.05L3.06 2.05C2.47 2.05 2 2.52 2 3.11L2 13.91C2 14.49 2.47 14.97 3.06 14.97L12.93 14.97C13.52 14.97 14 14.49 14 13.91L14 3.11C14 2.52 13.52 2.05 12.94 2.05ZM8.01 11.31C8.01 11.59 7.79 11.81 7.51 11.81L5.03 11.81C4.75 11.81 4.53 11.59 4.53 11.31C4.53 11.04 4.75 10.81 5.03 10.81L7.51 10.81C7.79 10.81 8.01 11.04 8.01 11.31ZM11.52 8.53C11.52 8.81 11.29 9.03 11.02 9.03L5 9.03C4.73 9.03 4.5 8.81 4.5 8.53C4.5 8.26 4.73 8.03 5 8.03L11.02 8.03C11.3 8.03 11.52 8.26 11.52 8.53ZM11.52 5.75C11.52 6.03 11.29 6.25 11.02 6.25L5 6.25C4.73 6.25 4.5 6.03 4.5 5.75C4.5 5.48 4.73 5.25 5 5.25L11.02 5.25C11.3 5.25 11.52 5.48 11.52 5.75Z" fill="#000000" fill-opacity="0.600000" fill-rule="nonzero"/>
	</g>
</svg>
