<svg width="16.000000" height="16.000000" viewBox="0 0 16 16" fill="none" xmlns="http://www.w3.org/2000/svg" xmlns:xlink="http://www.w3.org/1999/xlink">
	<desc>
			Created with Pixso.
	</desc>
	<defs>
		<clipPath id="clip53_739">
			<rect width="16.000000" height="16.000000" fill="white" fill-opacity="0"/>
		</clipPath>
	</defs>
	<g clip-path="url(#clip53_739)">
		<path d="M5.81 15.7C4.91 15.44 4.08 15.04 3.32 14.5L3.35 12.88C3.36 12.79 3.35 12.71 3.34 12.63C3.32 12.54 3.3 12.46 3.28 12.38C3.25 12.3 3.22 12.23 3.18 12.15C3.14 12.08 3.09 12.01 3.04 11.94C2.98 11.88 2.93 11.81 2.86 11.76C2.8 11.7 2.73 11.65 2.66 11.61C2.59 11.56 2.51 11.53 2.44 11.5C2.36 11.46 2.28 11.44 2.19 11.42L0.61 11.1C0.25 10.23 0.04 9.34 0 8.4L1.28 7.42C1.35 7.37 1.41 7.31 1.47 7.25C1.52 7.19 1.58 7.12 1.62 7.05C1.67 6.98 1.71 6.9 1.74 6.83C1.77 6.75 1.8 6.67 1.82 6.59C1.83 6.51 1.85 6.42 1.85 6.34C1.85 6.25 1.85 6.17 1.84 6.09C1.83 6 1.81 5.92 1.79 5.84C1.76 5.76 1.73 5.68 1.69 5.61L0.96 4.16C1.41 3.34 1.99 2.62 2.69 2L4.26 2.39C4.34 2.41 4.42 2.43 4.5 2.43C4.59 2.44 4.67 2.44 4.76 2.43C4.84 2.42 4.92 2.41 5 2.38C5.08 2.36 5.16 2.33 5.24 2.29C5.32 2.26 5.39 2.21 5.46 2.17C5.52 2.12 5.59 2.06 5.65 2C5.71 1.94 5.76 1.88 5.81 1.81C5.86 1.74 5.9 1.66 5.93 1.59L6.6 0.11C7.06 0.04 7.52 0 7.99 0C8.46 0 8.92 0.04 9.37 0.11L10.04 1.59C10.07 1.66 10.12 1.74 10.16 1.81C10.21 1.88 10.26 1.94 10.32 2C10.38 2.06 10.45 2.12 10.51 2.17C10.58 2.21 10.65 2.26 10.73 2.29C10.81 2.33 10.89 2.36 10.97 2.38C11.05 2.41 11.13 2.42 11.21 2.43C11.3 2.44 11.38 2.44 11.47 2.43C11.55 2.43 11.63 2.41 11.71 2.39L13.28 2C13.98 2.62 14.56 3.34 15.01 4.16L14.28 5.61C14.24 5.68 14.21 5.76 14.18 5.84C14.16 5.92 14.14 6 14.13 6.09C14.12 6.17 14.12 6.25 14.12 6.34C14.12 6.42 14.14 6.5 14.15 6.59C14.17 6.67 14.2 6.75 14.23 6.83C14.26 6.9 14.3 6.98 14.35 7.05C14.39 7.12 14.45 7.19 14.5 7.25C14.56 7.31 14.62 7.37 14.69 7.42L15.97 8.4C15.93 9.34 15.72 10.23 15.36 11.1L13.78 11.42C13.69 11.44 13.61 11.46 13.53 11.5C13.46 11.53 13.38 11.56 13.31 11.61C13.24 11.65 13.17 11.7 13.11 11.76C13.04 11.81 12.99 11.87 12.93 11.94C12.88 12.01 12.83 12.08 12.79 12.15C12.75 12.22 12.72 12.3 12.69 12.38C12.67 12.46 12.65 12.54 12.63 12.63C12.62 12.71 12.61 12.79 12.62 12.88L12.65 14.5C11.89 15.04 11.06 15.44 10.16 15.7L8.91 14.66C8.85 14.61 8.78 14.56 8.71 14.52C8.63 14.47 8.56 14.44 8.48 14.41C8.4 14.38 8.32 14.36 8.24 14.35C8.15 14.33 8.07 14.32 7.98 14.32C7.9 14.32 7.82 14.33 7.73 14.35C7.65 14.36 7.57 14.38 7.49 14.41C7.41 14.44 7.33 14.47 7.26 14.52C7.19 14.56 7.12 14.61 7.05 14.66L5.81 15.7ZM7.98 11.27C8.09 11.27 8.2 11.26 8.31 11.25C8.41 11.24 8.52 11.23 8.62 11.21C8.73 11.18 8.83 11.16 8.93 11.13C9.04 11.1 9.14 11.06 9.24 11.02C9.34 10.98 9.43 10.93 9.53 10.88C9.62 10.83 9.71 10.78 9.8 10.72C9.89 10.66 9.98 10.59 10.06 10.53C10.14 10.46 10.22 10.39 10.3 10.31C10.37 10.23 10.45 10.15 10.51 10.07C10.58 9.99 10.65 9.9 10.71 9.81C10.77 9.72 10.82 9.63 10.87 9.54C10.92 9.44 10.97 9.35 11.01 9.25C11.05 9.15 11.09 9.05 11.12 8.95C11.15 8.84 11.17 8.74 11.19 8.63C11.22 8.53 11.23 8.42 11.24 8.32C11.25 8.21 11.26 8.1 11.26 8C11.26 7.89 11.25 7.78 11.24 7.67C11.23 7.57 11.22 7.46 11.19 7.36C11.17 7.25 11.15 7.15 11.12 7.05C11.09 6.94 11.05 6.84 11.01 6.74C10.97 6.64 10.92 6.55 10.87 6.45C10.82 6.36 10.77 6.27 10.71 6.18C10.65 6.09 10.58 6 10.51 5.92C10.45 5.84 10.37 5.76 10.3 5.68C10.22 5.61 10.14 5.53 10.06 5.47C9.98 5.4 9.89 5.33 9.8 5.27C9.71 5.21 9.62 5.16 9.53 5.11C9.43 5.06 9.34 5.01 9.24 4.97C9.14 4.93 9.04 4.89 8.93 4.86C8.83 4.83 8.73 4.81 8.62 4.79C8.52 4.76 8.41 4.75 8.31 4.74C8.2 4.73 8.09 4.72 7.98 4.72C7.88 4.72 7.77 4.73 7.66 4.74C7.56 4.75 7.45 4.76 7.35 4.79C7.24 4.81 7.14 4.83 7.03 4.86C6.93 4.89 6.83 4.93 6.73 4.97C6.63 5.01 6.54 5.06 6.44 5.11C6.35 5.16 6.26 5.21 6.17 5.27C6.08 5.33 5.99 5.4 5.91 5.47C5.83 5.53 5.75 5.61 5.67 5.68C5.59 5.76 5.52 5.84 5.46 5.92C5.39 6 5.32 6.09 5.26 6.18C5.2 6.27 5.15 6.36 5.1 6.45C5.05 6.55 5 6.64 4.96 6.74C4.92 6.84 4.88 6.94 4.85 7.05C4.82 7.15 4.8 7.25 4.78 7.36C4.75 7.46 4.74 7.57 4.73 7.67C4.72 7.78 4.71 7.89 4.71 8C4.71 8.1 4.72 8.21 4.73 8.32C4.74 8.42 4.75 8.53 4.78 8.63C4.8 8.74 4.82 8.84 4.85 8.95C4.88 9.05 4.92 9.15 4.96 9.25C5 9.35 5.05 9.44 5.1 9.54C5.15 9.63 5.2 9.72 5.26 9.81C5.32 9.9 5.39 9.99 5.46 10.07C5.52 10.15 5.59 10.23 5.67 10.31C5.75 10.39 5.83 10.46 5.91 10.53C5.99 10.59 6.08 10.66 6.17 10.72C6.26 10.78 6.35 10.83 6.44 10.88C6.54 10.93 6.63 10.98 6.73 11.02C6.83 11.06 6.93 11.1 7.03 11.13C7.14 11.16 7.24 11.18 7.35 11.21C7.45 11.23 7.56 11.24 7.66 11.25C7.77 11.26 7.88 11.27 7.98 11.27Z" fill="#000000" fill-opacity="0.600000" fill-rule="nonzero"/>
	</g>
</svg>
