<svg width="16.000000" height="16.000000" viewBox="0 0 16 16" fill="none" xmlns="http://www.w3.org/2000/svg" xmlns:xlink="http://www.w3.org/1999/xlink">
	<desc>
			Created with Pixso.
	</desc>
	<defs>
		<clipPath id="clip156_2144">
			<rect width="16.000000" height="16.000000" fill="white" fill-opacity="0"/>
		</clipPath>
	</defs>
	<g clip-path="url(#clip156_2144)">
		<g opacity="0.000000">
			<rect width="16.000000" height="16.000000" fill="#D8D8D8" fill-opacity="1.000000"/>
			<rect width="16.000000" height="16.000000" stroke="#000000" stroke-opacity="0" stroke-width="1.000000"/>
		</g>
		<path d="M7.61 1C9.18 1 10.46 2.27 10.46 3.85C10.46 5.61 10.01 6.89 9.3 7.63L9.2 7.74L9.71 8.08C9.21 8.4 8.86 8.94 8.82 9.56L8.81 9.71L8.81 10.17C8.17 10.27 7.67 10.79 7.61 11.45L7.61 11.57L7.61 13.66L7.61 13.77C7.66 14.34 8.04 14.82 8.56 15L2.26 14.99C1.46 14.99 0.87 14.27 1.02 13.5L1.04 13.4L1.51 11.69C1.7 10.96 2.15 10.33 2.76 9.89L2.91 9.79L6.13 7.74C5.31 6.94 4.75 5.49 4.75 3.85C4.75 2.27 6.03 1 7.61 1ZM11.9 7.78C12.92 7.78 13.75 8.58 13.82 9.58L13.82 9.71L13.82 10.18C14.45 10.29 14.94 10.81 14.99 11.46L15 11.57L15 13.58C15 14.32 14.42 14.93 13.7 14.99L13.58 14.99L10.18 14.99C9.44 14.99 8.83 14.42 8.77 13.7L8.77 13.58L8.77 11.57C8.77 10.86 9.29 10.27 9.97 10.17L9.97 9.71C9.97 8.65 10.83 7.78 11.9 7.78ZM11.9 8.95C11.51 8.95 11.19 9.24 11.14 9.62L11.14 9.71L11.14 10.16L12.66 10.16L12.66 9.71C12.66 9.29 12.32 8.95 11.9 8.95Z" fill="#000000" fill-opacity="0.600000" fill-rule="evenodd"/>
		<path d="M10.46 3.85C10.46 5.61 10.01 6.89 9.3 7.63L9.2 7.74L9.71 8.08C9.21 8.4 8.86 8.94 8.82 9.56L8.81 9.71L8.81 10.17C8.17 10.27 7.67 10.79 7.61 11.45L7.61 11.57L7.61 13.66L7.61 13.77C7.66 14.34 8.04 14.82 8.56 15L2.26 14.99C1.46 14.99 0.87 14.27 1.02 13.5L1.04 13.4L1.51 11.69C1.7 10.96 2.15 10.33 2.76 9.89L2.91 9.79L6.13 7.74C5.31 6.94 4.75 5.49 4.75 3.85C4.75 2.27 6.03 1 7.61 1C9.18 1 10.46 2.27 10.46 3.85ZM13.82 9.58L13.82 9.71L13.82 10.18C14.45 10.29 14.94 10.81 14.99 11.46L15 11.57L15 13.58C15 14.32 14.42 14.93 13.7 14.99L13.58 14.99L10.18 14.99C9.44 14.99 8.83 14.42 8.77 13.7L8.77 13.58L8.77 11.57C8.77 10.86 9.29 10.27 9.97 10.17L9.97 9.71C9.97 8.65 10.83 7.78 11.9 7.78C12.92 7.78 13.75 8.58 13.82 9.58ZM11.14 9.62L11.14 9.71L11.14 10.16L12.66 10.16L12.66 9.71C12.66 9.29 12.32 8.95 11.9 8.95C11.51 8.95 11.19 9.24 11.14 9.62Z" stroke="#000000" stroke-opacity="0" stroke-width="1.000000"/>
	</g>
</svg>
