<svg width="16.000000" height="16.000000" viewBox="0 0 16 16" fill="none" xmlns="http://www.w3.org/2000/svg" xmlns:xlink="http://www.w3.org/1999/xlink">
	<desc>
			Created with Pixso.
	</desc>
	<defs>
		<clipPath id="clip56_673">
			<rect width="16.000000" height="16.000000" fill="white" fill-opacity="0"/>
		</clipPath>
	</defs>
	<g clip-path="url(#clip56_673)">
		<path d="M13.97 5.55L13.94 5.55C13.32 2.77 10.74 0.8 7.78 0.85C4.82 0.91 2.31 2.97 1.81 5.77C1.26 5.86 0.85 6.33 0.85 6.89L0.85 9.13C0.87 9.76 1.39 10.27 2.02 10.25C2.36 10.25 2.68 10.1 2.89 9.84C3.42 11.16 4.45 12.21 5.77 12.76C5.78 12.73 5.8 12.7 5.82 12.67C5.84 12.64 5.86 12.63 5.89 12.62C5.91 12.62 5.93 12.63 5.94 12.64C5.73 12.45 5.53 12.25 5.35 12.03C5.17 11.81 5.01 11.57 4.87 11.32C4.73 11.07 4.61 10.81 4.51 10.54C4.42 10.27 4.35 10 4.3 9.72C4.22 9.02 4.67 8.38 5.35 8.23C6.36 8.05 7.36 7.84 8.36 7.67C8.95 7.59 9.46 7.2 9.7 6.65C9.81 6.41 9.87 6.14 9.89 5.87C9.9 5.82 9.94 5.79 9.99 5.78C10.04 5.77 10.09 5.78 10.12 5.82L10.14 5.81C10.54 6.37 11.31 7.59 11.43 8.89C11.56 10.37 11.49 11.39 10.32 12.43C10.3 12.44 10.29 12.47 10.29 12.49C10.29 12.52 10.31 12.55 10.34 12.57L10.41 12.57L10.46 12.54C11.64 11.91 12.54 10.85 12.96 9.58C13.14 9.83 13.4 10 13.71 10.06C13.21 12.24 11.2 13.61 8.7 13.82C8.51 13.37 8.04 13.12 7.56 13.22C7.04 13.3 6.68 13.8 6.76 14.32C6.83 14.75 7.18 15.08 7.61 15.13C8.09 15.2 8.56 14.92 8.72 14.47C11.61 14.24 13.93 12.58 14.41 9.99C14.85 9.82 15.13 9.4 15.14 8.94L15.14 6.69C15.14 6.39 15.01 6.1 14.79 5.89C14.56 5.67 14.26 5.55 13.95 5.55L13.97 5.55ZM12.9 6.2C11.79 3.43 8.65 2.09 5.88 3.2C4.53 3.75 3.45 4.82 2.9 6.17C2.86 6.13 2.82 6.09 2.77 6.05C3.17 3.63 5.33 1.85 7.88 1.84C10.43 1.83 12.6 3.6 13.02 6.01C12.97 6.07 12.93 6.13 12.9 6.2Z" fill="#000000" fill-opacity="0.600000" fill-rule="nonzero"/>
	</g>
</svg>
