<svg width="24.000000" height="24.000000" viewBox="0 0 24 24" fill="none" xmlns="http://www.w3.org/2000/svg" xmlns:xlink="http://www.w3.org/1999/xlink">
	<desc>
			Created with Pixso.
	</desc>
	<defs>
		<clipPath id="clip21_6418">
			<rect id="ic_ebg_unacknowledged_alarms" width="24.000000" height="24.000000" fill="white" fill-opacity="0"/>
		</clipPath>
	</defs>
	<g clip-path="url(#clip21_6418)">
		<path id="矢量 121" d="M22.43 10.29L20.69 4.89C20.63 4.68 20.54 4.49 20.43 4.32C20.32 4.15 20.19 3.99 20.03 3.84C19.88 3.69 19.72 3.57 19.54 3.47C19.36 3.37 19.16 3.29 18.96 3.24C16.49 2.58 14.09 2.25 11.75 2.25C10.15 2.25 8.58 2.4 7.04 2.71C6.34 2.85 5.65 3.02 4.97 3.23C4.77 3.29 4.58 3.37 4.41 3.47C4.24 3.57 4.08 3.69 3.93 3.84C3.78 3.99 3.66 4.15 3.55 4.32C3.45 4.49 3.37 4.67 3.31 4.86L1.06 11.86C1.04 11.92 1.03 11.99 1.02 12.06C1.01 12.12 1.01 12.18 1.02 12.25C1.02 12.31 1.04 12.38 1.05 12.44C1.07 12.5 1.1 12.56 1.13 12.62C1.16 12.68 1.19 12.73 1.23 12.78C1.27 12.83 1.31 12.88 1.36 12.92C1.41 12.96 1.47 13 1.52 13.03C1.58 13.06 1.64 13.09 1.71 13.11C1.78 13.13 1.84 13.15 1.91 13.16C1.97 13.16 2.04 13.16 2.1 13.16C2.17 13.15 2.23 13.14 2.29 13.12C2.35 13.1 2.41 13.08 2.47 13.05C2.53 13.02 2.59 12.98 2.64 12.94C2.69 12.9 2.73 12.86 2.77 12.81C2.82 12.76 2.85 12.71 2.89 12.65C2.92 12.59 2.95 12.53 2.97 12.47L5.21 5.47C5.22 5.43 5.24 5.39 5.26 5.36C5.29 5.33 5.4 5.21 5.44 5.19C5.47 5.17 5.51 5.15 5.54 5.14C6.12 4.97 6.7 4.82 7.29 4.7C8.74 4.4 10.23 4.25 11.75 4.25C13.91 4.25 16.14 4.55 18.44 5.17C18.48 5.18 18.52 5.2 18.56 5.22C18.59 5.24 18.63 5.26 18.66 5.29C18.68 5.32 18.78 5.46 18.79 5.5L19.85 8.82C20.82 9.12 21.69 9.63 22.43 10.29Z" fill="#62B42E" fill-opacity="1.000000" fill-rule="evenodd"/>
		<path id="矢量 123" d="M13.7 9.78C13.11 9.76 12.54 9.75 11.99 9.75C9.33 9.75 6.21 10.04 2.64 10.62C2.46 10.65 2.29 10.69 2.12 10.76C1.97 10.81 1.83 10.88 1.69 10.96C1.55 11.04 1.42 11.14 1.3 11.24C1.17 11.35 1.05 11.47 0.94 11.61C0.84 11.74 0.74 11.88 0.66 12.03C0.59 12.17 0.52 12.32 0.47 12.47C0.42 12.62 0.39 12.77 0.37 12.93C0.34 13.11 0.33 13.29 0.34 13.48L0.69 20.09C0.7 20.21 0.72 20.33 0.75 20.44C0.78 20.54 0.81 20.64 0.86 20.74C0.9 20.84 0.96 20.93 1.02 21.01C1.08 21.1 1.16 21.19 1.24 21.27C1.32 21.34 1.41 21.41 1.5 21.47C1.59 21.53 1.69 21.58 1.78 21.62C1.88 21.66 1.98 21.69 2.09 21.71C2.2 21.73 2.32 21.75 2.44 21.75L5.49 21.75C5.63 21.75 5.75 21.71 5.87 21.64C5.99 21.58 6.08 21.48 6.15 21.37L6.93 20L12.38 20C11.36 18.78 10.74 17.21 10.74 15.5C10.74 13.14 11.91 11.05 13.7 9.78Z" fill="#62B42E" fill-opacity="1.000000" fill-rule="evenodd"/>
		<path id="矢量 122" d="M10.75 15.75L8.5 15.75C8.08 15.75 7.75 16.08 7.75 16.5C7.75 16.92 8.08 17.25 8.5 17.25L10.97 17.25C10.84 16.76 10.77 16.26 10.75 15.75ZM6.5 15.75L3.5 15.75C3.08 15.74 2.75 16.07 2.75 16.49C2.74 16.91 3.07 17.24 3.49 17.25L6.49 17.25C6.91 17.25 7.24 16.92 7.25 16.5C7.25 16.08 6.92 15.75 6.5 15.75Z" fill="#FFFFFF" fill-opacity="1.000000" fill-rule="evenodd"/>
		<circle id="path10" cx="18.000000" cy="16.000000" r="6.000000" fill="#62B42E" fill-opacity="1.000000"/>
		<path id="path11 (边框)" d="M18.35 12.35L18.35 15.41L20.81 16.81C21.17 17.01 21.3 17.46 21.09 17.83C20.88 18.2 20.43 18.32 20.07 18.11L17.23 16.5C17.11 16.43 17.02 16.34 16.95 16.22C16.88 16.11 16.85 15.98 16.85 15.85L16.85 12.35C16.85 11.93 17.18 11.6 17.6 11.6C18.02 11.6 18.35 11.93 18.35 12.35Z" fill="#FFFFFF" fill-opacity="1.000000" fill-rule="evenodd"/>
	</g>
</svg>
