<svg width="24.000000" height="24.000000" viewBox="0 0 24 24" fill="none" xmlns="http://www.w3.org/2000/svg" xmlns:xlink="http://www.w3.org/1999/xlink">
	<desc>
			Created with Pixso.
	</desc>
	<defs>
		<clipPath id="clip17_3908">
			<rect id="ic_ebg_vehicle_positioning" width="24.000000" height="24.000000" fill="white" fill-opacity="0"/>
		</clipPath>
	</defs>
	<g clip-path="url(#clip17_3908)">
		<path id="矢量 125" d="M22.6 10.85L20.69 4.89C20.63 4.68 20.54 4.49 20.43 4.32C20.32 4.15 20.19 3.99 20.03 3.84C19.88 3.69 19.71 3.57 19.53 3.47C19.35 3.37 19.16 3.29 18.96 3.24C16.49 2.58 14.09 2.25 11.75 2.25C10.15 2.25 8.58 2.4 7.04 2.71C6.34 2.85 5.65 3.02 4.97 3.23C4.77 3.29 4.58 3.37 4.41 3.47C4.24 3.57 4.08 3.69 3.93 3.84C3.78 3.99 3.66 4.15 3.55 4.32C3.45 4.49 3.37 4.67 3.31 4.86L1.06 11.86C1.04 11.92 1.03 11.99 1.02 12.06C1.01 12.12 1.01 12.18 1.02 12.25C1.02 12.31 1.04 12.38 1.05 12.44C1.07 12.5 1.1 12.56 1.13 12.62C1.16 12.68 1.19 12.73 1.23 12.78C1.27 12.83 1.31 12.88 1.36 12.92C1.41 12.96 1.47 13 1.52 13.03C1.58 13.06 1.64 13.09 1.71 13.11C1.78 13.13 1.84 13.15 1.91 13.16C1.97 13.16 2.04 13.16 2.1 13.16C2.17 13.15 2.23 13.14 2.29 13.12C2.35 13.1 2.41 13.08 2.47 13.05C2.53 13.02 2.59 12.98 2.64 12.94C2.69 12.9 2.73 12.86 2.77 12.81C2.82 12.76 2.85 12.71 2.89 12.65C2.92 12.59 2.95 12.53 2.97 12.47L5.21 5.47C5.22 5.43 5.24 5.39 5.26 5.36C5.29 5.33 5.4 5.21 5.44 5.19C5.47 5.17 5.51 5.15 5.54 5.14C6.12 4.97 6.7 4.82 7.29 4.7C8.74 4.4 10.23 4.25 11.75 4.25C13.91 4.25 16.14 4.55 18.44 5.17C18.48 5.18 18.52 5.2 18.56 5.22C18.59 5.24 18.63 5.26 18.66 5.29C18.68 5.32 18.78 5.46 18.79 5.5L20.11 9.61C21.05 9.8 21.9 10.24 22.6 10.85Z" fill="#62B42E" fill-opacity="1.000000" fill-rule="evenodd"/>
		<path id="矢量 125" d="M16.7 10C15 9.83 13.43 9.75 12 9.75C9.33 9.75 6.21 10.04 2.64 10.62C2.46 10.65 2.29 10.69 2.12 10.76C1.97 10.81 1.83 10.88 1.69 10.96C1.55 11.04 1.42 11.14 1.3 11.24C1.17 11.35 1.05 11.47 0.95 11.61C0.84 11.74 0.74 11.88 0.66 12.03C0.59 12.17 0.53 12.32 0.47 12.47C0.43 12.62 0.39 12.77 0.37 12.93C0.34 13.11 0.33 13.29 0.34 13.48L0.7 20.09C0.7 20.21 0.72 20.33 0.75 20.44C0.78 20.54 0.81 20.64 0.86 20.74C0.9 20.84 0.96 20.93 1.02 21.01C1.08 21.1 1.16 21.19 1.24 21.27C1.32 21.34 1.41 21.41 1.5 21.47C1.59 21.53 1.69 21.58 1.78 21.62C1.88 21.66 1.98 21.69 2.09 21.71C2.2 21.73 2.32 21.75 2.44 21.75L5.5 21.75C5.63 21.75 5.76 21.71 5.87 21.64C5.99 21.58 6.08 21.48 6.15 21.37L6.93 20L15.79 20C14.28 18.29 13.5 16.63 13.5 15C13.5 12.78 14.81 10.87 16.7 10Z" fill="#62B42E" fill-opacity="1.000000" fill-rule="evenodd"/>
		<path id="矢量 125" d="M13.55 15.75L8.5 15.75C8.08 15.75 7.75 16.08 7.75 16.5C7.75 16.92 8.08 17.25 8.5 17.25L13.98 17.25C13.76 16.74 13.62 16.24 13.55 15.75ZM6.5 15.75L3.5 15.75C3.08 15.74 2.75 16.07 2.75 16.49C2.74 16.91 3.07 17.24 3.49 17.25L6.49 17.25C6.91 17.25 7.24 16.92 7.25 16.5C7.25 16.08 6.92 15.75 6.5 15.75Z" fill="#FFFFFF" fill-opacity="1.000000" fill-rule="evenodd"/>
		<path id="矢量 125" d="M23.75 15C23.75 16.03 23.37 17.11 22.62 18.24C21.91 19.3 20.86 20.41 19.48 21.57C19.41 21.63 19.33 21.67 19.25 21.7C19.17 21.73 19.09 21.75 19 21.75C18.9 21.75 18.82 21.73 18.74 21.7C18.66 21.67 18.58 21.63 18.51 21.57C17.13 20.41 16.08 19.3 15.37 18.24C14.62 17.11 14.25 16.03 14.25 15C14.25 14.64 14.28 14.3 14.36 13.97C14.42 13.69 14.51 13.41 14.62 13.15C14.73 12.88 14.87 12.62 15.03 12.38C15.2 12.12 15.41 11.87 15.64 11.64C15.87 11.41 16.12 11.2 16.38 11.03C16.62 10.87 16.88 10.73 17.15 10.62C17.41 10.51 17.69 10.42 17.97 10.36C18.3 10.28 18.64 10.25 19 10.25C19.35 10.25 19.69 10.28 20.02 10.36C20.3 10.42 20.58 10.51 20.84 10.62C21.11 10.73 21.37 10.87 21.61 11.03C21.87 11.2 22.12 11.41 22.35 11.64C22.58 11.87 22.79 12.12 22.96 12.38C23.12 12.62 23.26 12.88 23.37 13.15C23.48 13.41 23.57 13.69 23.63 13.97C23.71 14.3 23.75 14.64 23.75 15ZM19 13C17.89 13 17 13.89 17 15C17 16.1 17.89 17 19 17C20.1 17 21 16.1 21 15C21 13.89 20.1 13 19 13Z" fill="#62B42E" fill-opacity="1.000000" fill-rule="evenodd"/>
	</g>
</svg>
