<svg width="19.999969" height="16.000000" viewBox="0 0 20 16" fill="none" xmlns="http://www.w3.org/2000/svg" xmlns:xlink="http://www.w3.org/1999/xlink">
	<desc>
			Created with Pixso.
	</desc>
	<defs/>
	<path id="矢量 126" d="M16.48 1C16.63 1.08 16.77 1.19 16.9 1.31C17.02 1.43 17.13 1.56 17.22 1.71C17.31 1.85 17.38 2.01 17.43 2.18L18.95 7.24C19.03 7.3 19.11 7.35 19.19 7.42C19.29 7.5 19.4 7.61 19.49 7.71C19.58 7.82 19.66 7.94 19.73 8.06C19.79 8.17 19.84 8.29 19.88 8.41C19.92 8.53 19.95 8.65 19.97 8.78C19.99 8.92 20 9.07 19.99 9.21L19.69 14.69C19.68 14.79 19.66 14.88 19.64 14.97C19.62 15.05 19.59 15.13 19.55 15.2C19.51 15.28 19.47 15.35 19.42 15.42C19.37 15.49 19.31 15.56 19.24 15.62C19.17 15.68 19.1 15.73 19.02 15.78C18.95 15.82 18.87 15.86 18.79 15.89C18.71 15.93 18.63 15.95 18.54 15.97C18.45 15.99 18.35 16 18.25 16L15.61 16C15.51 16 15.41 15.97 15.32 15.92C15.23 15.87 15.16 15.8 15.11 15.72L14.41 14.55L5.58 14.55L4.88 15.72C4.83 15.8 4.76 15.87 4.67 15.92C4.62 15.95 4.58 15.96 4.53 15.98C4.48 15.99 4.43 16 4.38 16L1.74 16C1.64 16 1.54 15.99 1.45 15.97C1.36 15.95 1.28 15.93 1.2 15.89C1.12 15.86 1.04 15.82 0.97 15.78C0.89 15.73 0.82 15.68 0.75 15.62C0.68 15.56 0.62 15.49 0.57 15.42C0.52 15.35 0.48 15.28 0.44 15.2C0.4 15.13 0.37 15.05 0.35 14.97C0.33 14.88 0.31 14.79 0.3 14.69L0 9.21C-0.01 9.07 0 8.92 0.02 8.78C0.04 8.66 0.07 8.53 0.11 8.41C0.15 8.29 0.2 8.17 0.26 8.06C0.33 7.94 0.41 7.82 0.5 7.71C0.59 7.61 0.69 7.51 0.8 7.42C0.88 7.36 0.96 7.3 1.04 7.24L2.56 2.18C2.61 2.01 2.68 1.85 2.77 1.71C2.86 1.56 2.97 1.43 3.09 1.31C3.22 1.19 3.36 1.09 3.51 1C3.66 0.92 3.82 0.85 4 0.8C6 0.26 8 0 10 0C10.03 0 10.07 6.1e-5 10.11 0C12.07 0 14.03 0.27 15.99 0.8C16.16 0.85 16.32 0.91 16.48 1ZM2.83 6.78C5.47 6.4 7.86 6.2 10 6.2C12.13 6.2 14.52 6.4 17.16 6.78L15.91 2.59C15.9 2.55 15.88 2.51 15.86 2.48C15.84 2.44 15.81 2.41 15.78 2.38C15.75 2.35 15.72 2.33 15.68 2.31C15.64 2.29 15.6 2.27 15.56 2.26C13.71 1.76 11.85 1.51 10 1.51C8.14 1.51 6.29 1.76 4.43 2.26C4.39 2.27 4.35 2.29 4.32 2.3C4.28 2.33 4.24 2.35 4.21 2.38C4.18 2.41 4.15 2.45 4.13 2.48C4.11 2.52 4.09 2.55 4.08 2.59L2.83 6.78ZM2.65 12.27L5.24 12.27C5.57 12.27 5.82 12.03 5.82 11.72C5.82 11.41 5.56 11.17 5.24 11.17L2.65 11.17C2.33 11.17 2.08 11.42 2.08 11.72C2.08 12.03 2.33 12.27 2.65 12.27ZM13.02 12.27L6.97 12.27C6.65 12.27 6.4 12.03 6.4 11.72C6.4 11.42 6.65 11.17 6.97 11.17L13.02 11.17C13.34 11.17 13.59 11.41 13.59 11.72C13.59 12.03 13.34 12.27 13.02 12.27ZM14.75 12.27L17.34 12.27C17.66 12.27 17.91 12.03 17.91 11.72C17.91 11.41 17.66 11.17 17.34 11.17L14.75 11.17C14.42 11.17 14.17 11.42 14.17 11.72C14.17 12.03 14.43 12.27 14.75 12.27Z" fill="#7BB201" fill-opacity="1.000000" fill-rule="evenodd"/>
</svg>
