<svg width="16.000000" height="16.000000" viewBox="0 0 16 16" fill="none" xmlns="http://www.w3.org/2000/svg" xmlns:xlink="http://www.w3.org/1999/xlink">
	<desc>
			Created with Pixso.
	</desc>
	<defs>
		<clipPath id="clip104_4422">
			<rect width="16.000000" height="16.000000" fill="white" fill-opacity="0"/>
		</clipPath>
	</defs>
	<g clip-path="url(#clip104_4422)">
		<g opacity="0.000000">
			<rect width="16.000000" height="16.000000" fill="#D8D8D8" fill-opacity="1.000000"/>
			<rect width="16.000000" height="16.000000" stroke="#000000" stroke-opacity="0" stroke-width="1.000000"/>
		</g>
		<path d="M4.31 3.55L4.31 3.62L4.31 5.32C4.31 5.69 4.02 5.99 3.65 5.99C3.38 5.99 3.16 5.84 3.05 5.62L2.96 5.78C2.68 6.4 2.53 7.08 2.5 7.78L2.5 8C2.5 11.03 4.96 13.5 8 13.5C8.85 13.5 9.68 13.3 10.43 12.93C10.76 12.77 11.16 12.9 11.32 13.23C11.48 13.56 11.34 13.96 11.01 14.13C10.08 14.59 9.06 14.83 8 14.83C4.22 14.83 1.16 11.77 1.16 8C1.16 6.15 1.9 4.42 3.18 3.15C3.58 2.75 4.25 3 4.31 3.55ZM8 1.16C11.77 1.16 14.83 4.22 14.83 7.99C14.83 9.84 14.09 11.57 12.81 12.84C12.41 13.24 11.74 12.99 11.68 12.44L11.68 12.37L11.68 10.67C11.68 10.3 11.97 10 12.34 10C12.61 10 12.83 10.15 12.94 10.37L13.03 10.21C13.31 9.59 13.46 8.91 13.49 8.21L13.5 7.99C13.5 4.96 11.03 2.49 8 2.49C7.14 2.49 6.31 2.69 5.57 3.06C5.23 3.22 4.84 3.09 4.67 2.76C4.51 2.43 4.65 2.03 4.98 1.86C5.91 1.4 6.94 1.16 8 1.16Z" fill="#387BF1" fill-opacity="1.000000" fill-rule="evenodd"/>
		<path d="M4.31 3.62L4.31 5.32C4.31 5.69 4.02 5.99 3.65 5.99C3.38 5.99 3.16 5.84 3.05 5.62L2.96 5.78C2.68 6.4 2.53 7.08 2.5 7.78L2.5 8C2.5 11.03 4.96 13.5 8 13.5C8.85 13.5 9.68 13.3 10.43 12.93C10.76 12.77 11.16 12.9 11.32 13.23C11.48 13.56 11.34 13.96 11.01 14.13C10.08 14.59 9.06 14.83 8 14.83C4.22 14.83 1.16 11.77 1.16 8C1.16 6.15 1.9 4.42 3.18 3.15C3.58 2.75 4.25 3 4.31 3.55L4.31 3.62ZM14.83 7.99C14.83 9.84 14.09 11.57 12.81 12.84C12.41 13.24 11.74 12.99 11.68 12.44L11.68 12.37L11.68 10.67C11.68 10.3 11.97 10 12.34 10C12.61 10 12.83 10.15 12.94 10.37L13.03 10.21C13.31 9.59 13.46 8.91 13.49 8.21L13.5 7.99C13.5 4.96 11.03 2.49 8 2.49C7.14 2.49 6.31 2.69 5.57 3.06C5.23 3.22 4.84 3.09 4.67 2.76C4.51 2.43 4.65 2.03 4.98 1.86C5.91 1.4 6.94 1.16 8 1.16C11.77 1.16 14.83 4.22 14.83 7.99Z" stroke="#000000" stroke-opacity="0" stroke-width="1.000000"/>
	</g>
</svg>
