<svg width="24.000000" height="24.000000" viewBox="0 0 24 24" fill="none" xmlns="http://www.w3.org/2000/svg" xmlns:xlink="http://www.w3.org/1999/xlink">
	<desc>
			Created with Pixso.
	</desc>
	<defs/>
	<rect id="icon_Q" width="24.000000" height="24.000000" fill="#FFFFFF" fill-opacity="0"/>
	<path id="Q" d="M18.11 17.93C18.99 18.56 19.95 19.07 21 19.44L19.67 22C19.12 21.83 18.59 21.61 18.07 21.32C17.96 21.27 17.16 20.74 15.67 19.74C14.5 20.25 13.2 20.51 11.78 20.51C9.04 20.51 6.88 19.7 5.33 18.08C3.77 16.46 3 14.18 3 11.25C3 8.33 3.78 6.05 5.33 4.43C6.89 2.81 9.01 2 11.68 2C14.33 2 16.43 2.81 17.98 4.43C19.54 6.05 20.31 8.33 20.31 11.25C20.31 12.8 20.1 14.16 19.67 15.33C19.34 16.22 18.82 17.09 18.11 17.93ZM15.21 15.89C15.67 15.34 16.02 14.69 16.25 13.91C16.48 13.14 16.6 12.25 16.6 11.25C16.6 9.18 16.14 7.64 15.23 6.62C14.32 5.59 13.13 5.08 11.66 5.08C10.19 5.08 9 5.6 8.08 6.62C7.17 7.65 6.71 9.19 6.71 11.25C6.71 13.34 7.17 14.91 8.08 15.95C9 16.98 10.15 17.5 11.55 17.5C12.07 17.5 12.56 17.42 13.02 17.25C12.29 16.77 11.55 16.39 10.79 16.12L11.81 14.06C12.99 14.47 14.13 15.08 15.21 15.89Z" fill="#64BB5C" fill-opacity="1.000000" fill-rule="nonzero"/>
</svg>
