<svg width="24.000000" height="24.000000" viewBox="0 0 24 24" fill="none" xmlns="http://www.w3.org/2000/svg" xmlns:xlink="http://www.w3.org/1999/xlink">
	<desc>
			Created with Pixso.
	</desc>
	<defs>
		<clipPath id="clip17_3963">
			<rect id="ic_public_scans" width="24.000000" height="24.000000" fill="white" fill-opacity="0"/>
		</clipPath>
	</defs>
	<g clip-path="url(#clip17_3963)">
		<path id="矢量 208" d="M1 9L1 4.75Q1 2.87 1.93 1.93Q2.87 1 4.75 1L9 1C9.41 1 9.75 1.32 9.75 1.75C9.75 2.17 9.41 2.5 9 2.5L4.75 2.5Q3.62 2.5 3.06 3.06Q2.5 3.62 2.5 4.75L2.5 9C2.5 9.42 2.16 9.75 1.75 9.75C1.33 9.75 1 9.42 1 9ZM21.5 9L21.5 4.75Q21.5 3.62 20.93 3.06Q20.37 2.5 19.25 2.5L15 2.5C14.58 2.5 14.25 2.17 14.25 1.75C14.25 1.32 14.58 1 15 1L19.25 1Q21.12 1 22.06 1.93Q23 2.87 23 4.75L23 9C23 9.42 22.66 9.75 22.25 9.75C21.83 9.75 21.5 9.42 21.5 9ZM20.75 11.25L3.25 11.25C2.83 11.25 2.5 11.58 2.5 12C2.5 12.42 2.83 12.75 3.25 12.75L20.75 12.75C21.16 12.75 21.5 12.42 21.5 12C21.5 11.58 21.16 11.25 20.75 11.25ZM1.75 14.25C2.16 14.25 2.5 14.58 2.5 15L2.5 19.25Q2.5 20.37 3.06 20.93Q3.62 21.5 4.75 21.5L9 21.5C9.41 21.5 9.75 21.83 9.75 22.25C9.75 22.67 9.41 23 9 23L4.75 23Q2.87 23 1.93 22.06Q1 21.12 1 19.25L1 15C1 14.58 1.33 14.25 1.75 14.25ZM22.25 14.25C22.66 14.25 23 14.58 23 15L23 19.25Q23 21.12 22.06 22.06Q21.12 23 19.25 23L15 23C14.58 23 14.25 22.67 14.25 22.25C14.25 21.83 14.58 21.5 15 21.5L19.25 21.5Q20.37 21.5 20.93 20.93Q21.5 20.37 21.5 19.25L21.5 15C21.5 14.58 21.83 14.25 22.25 14.25Z" fill="#191919" fill-opacity="1.000000" fill-rule="evenodd"/>
	</g>
</svg>
