<svg width="24.000000" height="24.000000" viewBox="0 0 24 24" fill="none" xmlns="http://www.w3.org/2000/svg" xmlns:xlink="http://www.w3.org/1999/xlink">
	<desc>
			Created with Pixso.
	</desc>
	<defs>
		<clipPath id="clip17_4098">
			<rect id="ic_digital_power_rule_management" width="24.000000" height="24.000000" fill="white" fill-opacity="0"/>
		</clipPath>
	</defs>
	<g clip-path="url(#clip17_4098)">
		<path id="矢量 207" d="M21.25 3.75L21.25 12.5L19.71 11.61C18.81 11.09 17.68 11.09 16.78 11.61L13.45 13.53C12.54 14.06 11.98 15.03 11.98 16.08L11.98 19.91C11.98 20.96 12.54 21.93 13.45 22.46L16.11 24L5.5 24C5.22 24 4.95 23.97 4.69 23.91Q4.35 23.83 4.04 23.7C3.82 23.61 3.62 23.5 3.43 23.37C3.22 23.24 3.02 23.08 2.84 22.9C2.66 22.72 2.5 22.52 2.37 22.31Q2.36 22.31 2.36 22.3Q2.17 22.02 2.04 21.71C1.95 21.49 1.88 21.28 1.83 21.05C1.77 20.79 1.75 20.52 1.75 20.25L1.75 3.75C1.75 3.47 1.77 3.2 1.83 2.94Q1.91 2.6 2.04 2.29C2.13 2.07 2.24 1.87 2.36 1.68C2.5 1.47 2.66 1.27 2.84 1.09C3.02 0.91 3.22 0.75 3.43 0.61C3.62 0.49 3.82 0.38 4.04 0.29Q4.35 0.16 4.69 0.08C4.95 0.02 5.22 0 5.5 0L17.5 0C17.77 0 18.04 0.02 18.3 0.08C18.53 0.13 18.74 0.2 18.95 0.29C19.17 0.38 19.37 0.49 19.56 0.62C19.77 0.75 19.97 0.91 20.15 1.09C20.33 1.27 20.49 1.47 20.63 1.68C20.75 1.87 20.86 2.07 20.95 2.29Q21.08 2.6 21.16 2.94C21.22 3.2 21.25 3.47 21.25 3.75ZM6.5 4.5L16.5 4.5C16.91 4.5 17.25 4.83 17.25 5.25C17.25 5.66 16.91 6 16.5 6L6.5 6C6.08 6 5.75 5.66 5.75 5.25C5.75 4.83 6.08 4.5 6.5 4.5ZM6.5 9.5L12.5 9.5C12.91 9.5 13.25 9.83 13.25 10.25C13.25 10.66 12.91 11 12.5 11L6.5 11C6.08 11 5.75 10.66 5.75 10.25C5.75 9.83 6.08 9.5 6.5 9.5ZM23.12 14.53C22.98 14.39 22.83 14.28 22.66 14.18L19.34 12.26C19.17 12.16 18.99 12.09 18.81 12.04C18.63 11.99 18.44 11.97 18.25 11.97C18.05 11.97 17.86 11.99 17.68 12.04C17.5 12.09 17.32 12.16 17.15 12.26L13.83 14.18C13.66 14.28 13.51 14.39 13.37 14.53C13.24 14.66 13.12 14.81 13.03 14.98C12.93 15.15 12.85 15.33 12.81 15.51C12.76 15.69 12.73 15.88 12.73 16.08L12.73 19.91C12.73 20.11 12.76 20.3 12.81 20.48C12.85 20.66 12.93 20.84 13.03 21.01C13.22 21.35 13.49 21.61 13.83 21.81L17.15 23.73C17.49 23.92 17.85 24.02 18.25 24.02C18.44 24.02 18.63 24 18.81 23.95C18.99 23.9 19.17 23.83 19.34 23.73L22.66 21.81C23 21.61 23.27 21.35 23.46 21.01C23.66 20.67 23.76 20.3 23.76 19.91L23.76 16.08C23.76 15.88 23.73 15.69 23.68 15.51C23.64 15.33 23.56 15.15 23.46 14.98C23.37 14.81 23.25 14.66 23.12 14.53ZM15.5 18C15.5 16.48 16.73 15.25 18.25 15.25C19.76 15.25 21 16.48 21 18C21 19.51 19.76 20.75 18.25 20.75C16.73 20.75 15.5 19.51 15.5 18ZM17 18C17 17.3 17.55 16.75 18.25 16.75C18.94 16.75 19.5 17.3 19.5 18C19.5 18.69 18.94 19.25 18.25 19.25C17.55 19.25 17 18.69 17 18Z" fill="#62B42E" fill-opacity="1.000000" fill-rule="evenodd"/>
	</g>
</svg>
