<svg width="24.000000" height="24.000000" viewBox="0 0 24 24" fill="none" xmlns="http://www.w3.org/2000/svg" xmlns:xlink="http://www.w3.org/1999/xlink">
	<desc>
			Created with Pixso.
	</desc>
	<defs>
		<clipPath id="clip17_4112">
			<rect id="ic_ict_beginner_guidance" width="24.000000" height="24.000000" fill="white" fill-opacity="0"/>
		</clipPath>
	</defs>
	<g clip-path="url(#clip17_4112)">
		<path id="减去顶层" d="M1.99 3.75L1.99 20.24C1.99 22.32 3.67 23.99 5.74 23.99L19.43 23.99C20.85 23.99 21.99 22.85 21.99 21.43C21.99 20.02 20.85 18.87 19.43 18.87L6.26 18.87C5.84 18.87 5.51 19.21 5.51 19.62C5.51 20.03 5.84 20.37 6.26 20.37L19.43 20.37C20.02 20.37 20.49 20.85 20.49 21.43C20.49 22.02 20.02 22.49 19.43 22.49L6.37 22.49C4.78 22.49 3.49 21.21 3.49 19.62C3.49 18.03 4.78 16.74 6.37 16.74L18.24 16.74C20.32 16.74 21.99 15.07 21.99 12.99L21.99 3.74C21.99 1.67 20.32 0 18.24 0L5.74 0C3.67 0 1.99 1.67 1.99 3.75ZM8.2 8.54C8.1 8.49 8.02 8.44 7.95 8.37C7.88 8.29 7.83 8.21 7.79 8.11C7.7 7.87 7.7 7.67 7.77 7.51C7.85 7.35 8 7.23 8.23 7.14L15.23 4.54C15.32 4.51 15.41 4.49 15.49 4.49C15.58 4.49 15.67 4.51 15.76 4.54C15.99 4.63 16.14 4.75 16.22 4.91C16.29 5.08 16.28 5.27 16.2 5.51L13.6 12.51C13.52 12.71 13.38 12.85 13.18 12.94C12.95 13.03 12.76 13.05 12.59 12.98C12.43 12.92 12.3 12.77 12.2 12.54L11.02 9.74L8.2 8.54Z" fill="#62B42E" fill-opacity="1.000000" fill-rule="evenodd"/>
	</g>
</svg>
