<svg width="24.000000" height="24.000000" viewBox="0 0 24 24" fill="none" xmlns="http://www.w3.org/2000/svg" xmlns:xlink="http://www.w3.org/1999/xlink">
	<desc>
			Created with Pixso.
	</desc>
	<defs>
		<clipPath id="clip17_4085">
			<rect id="ic_public_files" width="24.000000" height="24.000000" fill="white" fill-opacity="0"/>
		</clipPath>
	</defs>
	<g clip-path="url(#clip17_4085)">
		<path id="矢量 206" d="M14.35 0.25L5.58 0.25C5.3 0.25 5.03 0.27 4.77 0.33C4.55 0.38 4.33 0.45 4.12 0.54C3.9 0.63 3.7 0.74 3.51 0.86C3.3 1 3.11 1.16 2.92 1.34C2.74 1.52 2.58 1.72 2.44 1.93C2.32 2.12 2.21 2.32 2.12 2.53C2.03 2.74 1.96 2.96 1.91 3.18C1.85 3.44 1.83 3.72 1.83 4L1.83 20C1.83 20.5 1.92 20.99 2.12 21.45C2.31 21.9 2.58 22.3 2.92 22.65C3.27 22.99 3.67 23.26 4.12 23.45C4.58 23.65 5.07 23.75 5.58 23.75L18.41 23.75C18.91 23.75 19.4 23.65 19.87 23.45C20.32 23.26 20.71 22.99 21.06 22.65C21.24 22.47 21.4 22.27 21.54 22.06C21.66 21.87 21.77 21.67 21.86 21.45C22.06 20.99 22.16 20.5 22.16 20L22.16 8.1L17.35 8.1C15.69 8.1 14.35 6.75 14.35 5.1L14.35 0.25Z" fill="#62B42E" fill-opacity="1.000000" fill-rule="evenodd"/>
		<path id="矢量 206" d="M15.35 1L15.35 5.09C15.35 6.19 16.24 7.09 17.35 7.09L21.41 7.09L21.41 7.02L15.42 1L15.35 1Z" fill="#62B42E" fill-opacity="1.000000" fill-rule="evenodd"/>
		<path id="矢量 206" d="M5.55 10.78L10.51 10.78C10.92 10.78 11.26 11.11 11.26 11.53C11.26 11.95 10.92 12.28 10.51 12.28L5.55 12.28C5.13 12.28 4.8 11.95 4.8 11.53C4.8 11.11 5.13 10.78 5.55 10.78ZM5.55 15.73L13.48 15.73C13.9 15.73 14.23 16.06 14.23 16.48C14.23 16.9 13.9 17.23 13.48 17.23L5.55 17.23C5.13 17.23 4.8 16.9 4.8 16.48C4.8 16.06 5.13 15.73 5.55 15.73Z" fill="#FFFFFF" fill-opacity="1.000000" fill-rule="evenodd"/>
	</g>
</svg>
