<svg width="24.000000" height="24.000000" viewBox="0 0 24 24" fill="none" xmlns="http://www.w3.org/2000/svg" xmlns:xlink="http://www.w3.org/1999/xlink">
	<desc>
			Created with Pixso.
	</desc>
	<defs>
		<clipPath id="clip57_976">
			<rect width="24.000000" height="24.000000" fill="white" fill-opacity="0"/>
		</clipPath>
	</defs>
	<g clip-path="url(#clip57_976)">
		<path d="M20.45 7.42C18.45 0.99 10.14 -0.89 5.55 4.05C2.81 7.01 2.51 11.68 4.36 14.84C6.03 17.67 8.26 20.03 10.69 22.22C11.72 23.15 12.34 23.13 13.39 22.21C15.12 20.68 16.7 19.01 18.12 17.19C19.61 15.25 20.91 13.23 20.82 10.83C20.88 10.25 20.87 9.68 20.81 9.1C20.75 8.53 20.63 7.97 20.45 7.42ZM11.95 17.31C8 17.3 4.78 14.02 4.79 10.04C4.82 6.03 8.09 2.77 12.05 2.81C12.17 2.81 12.29 2.81 12.41 2.82C12.53 2.83 12.65 2.83 12.76 2.85C12.88 2.86 13 2.87 13.12 2.89C13.23 2.91 13.35 2.93 13.47 2.96C13.58 2.98 13.7 3.01 13.81 3.04C13.93 3.07 14.04 3.1 14.15 3.13C14.27 3.17 14.38 3.21 14.49 3.25C14.6 3.29 14.71 3.33 14.82 3.38C14.93 3.42 15.04 3.47 15.15 3.52C15.25 3.57 15.36 3.63 15.46 3.68C15.57 3.74 15.67 3.8 15.77 3.86C15.87 3.92 15.97 3.99 16.07 4.05C16.17 4.12 16.27 4.19 16.36 4.26C16.45 4.33 16.55 4.41 16.64 4.48C16.73 4.56 16.82 4.63 16.91 4.71C16.99 4.8 17.08 4.88 17.16 4.96C17.25 5.05 17.33 5.13 17.41 5.22C17.49 5.31 17.56 5.4 17.64 5.49C17.71 5.58 17.78 5.68 17.85 5.77C17.92 5.87 17.99 5.97 18.06 6.06C18.12 6.16 18.18 6.26 18.25 6.37C18.31 6.47 18.36 6.57 18.42 6.68C18.47 6.78 18.53 6.89 18.58 7C18.63 7.1 18.67 7.21 18.72 7.32C18.76 7.43 18.81 7.54 18.84 7.65C18.88 7.77 18.92 7.88 18.95 7.99C18.99 8.11 19.02 8.22 19.05 8.34C19.08 8.45 19.1 8.57 19.12 8.68C19.15 8.8 19.16 8.92 19.18 9.03C19.2 9.15 19.21 9.27 19.22 9.39C19.23 9.5 19.24 9.62 19.25 9.74C19.25 9.86 19.25 9.98 19.25 10.1C19.25 14.12 16 17.32 11.95 17.31Z" fill="#387BF1" fill-opacity="1.000000" fill-rule="nonzero"/>
		<path d="M12.87 5.68C12.03 5.65 11.19 5.66 10.35 5.66C9.47 5.66 9.24 5.88 9.24 6.76L9.24 14.2C9.24 14.33 9.25 14.46 9.26 14.59C9.3 15 9.55 15.2 9.94 15.24C10.48 15.29 10.8 14.99 10.81 14.36C10.83 13.62 10.81 12.89 10.81 12.05C11.55 12.05 12.24 12.08 12.93 12.05C14.71 11.95 16.05 10.55 16.03 8.86C16.01 7.09 14.67 5.74 12.87 5.68ZM12.78 10.49C12.19 10.5 11.6 10.49 11.01 10.49C10.95 10.47 10.9 10.46 10.84 10.44L10.84 7.23C11.56 7.23 12.23 7.2 12.9 7.24C13.01 7.24 13.11 7.26 13.21 7.28C13.31 7.31 13.41 7.34 13.51 7.38C13.61 7.43 13.7 7.48 13.78 7.54C13.87 7.6 13.95 7.67 14.02 7.75C14.09 7.83 14.15 7.91 14.21 8C14.27 8.09 14.31 8.18 14.35 8.28C14.39 8.38 14.42 8.48 14.44 8.58C14.45 8.69 14.46 8.79 14.46 8.9C14.44 9.78 13.72 10.48 12.78 10.49Z" fill="#387BF1" fill-opacity="1.000000" fill-rule="nonzero"/>
	</g>
</svg>
