<svg width="24.000000" height="24.000000" viewBox="0 0 24 24" fill="none" xmlns="http://www.w3.org/2000/svg" xmlns:xlink="http://www.w3.org/1999/xlink">
	<desc>
			Created with Pixso.
	</desc>
	<defs>
		<clipPath id="clip57_935">
			<rect width="24.000000" height="24.000000" fill="white" fill-opacity="0"/>
		</clipPath>
	</defs>
	<g clip-path="url(#clip57_935)">
		<path d="M22.25 11.6L19.28 8.96L19.28 5.01C19.28 4.83 19.03 4.67 18.71 4.67L17.56 4.67C17.24 4.67 16.98 4.83 16.98 5.01L16.98 6.91L15.28 5.39L13.37 3.68C13.25 3.55 13.12 3.45 13 3.35C12.86 3.25 12.71 3.16 12.56 3.1C12.38 3.03 12.19 2.99 11.99 2.99C11.8 2.99 11.61 3.03 11.43 3.1C11.28 3.16 11.13 3.25 10.99 3.35C10.86 3.45 10.74 3.55 10.62 3.68L8.71 5.39L5.11 8.6L1.74 11.6C1.58 11.75 1.56 12 1.7 12.17L2.61 13.29C2.75 13.46 2.99 13.48 3.15 13.34L5.11 11.59L8.6 8.47L11.99 5.45L15.38 8.47L18.88 11.59L20.84 13.34C21 13.48 21.24 13.46 21.38 13.29L22.29 12.17C22.43 12 22.41 11.75 22.25 11.6Z" fill="#F9A01E" fill-opacity="1.000000" fill-rule="nonzero"/>
		<path d="M12.04 6.58L8.65 9.6L5.15 12.72L5.15 20.13C5.15 20.33 5.25 20.49 5.37 20.49L10.61 20.49L10.61 15.55L13.47 15.55L13.47 20.49L18.71 20.49C18.83 20.49 18.92 20.33 18.92 20.13L18.92 12.72L15.43 9.6L12.04 6.58Z" fill="#F9A01E" fill-opacity="1.000000" fill-rule="nonzero"/>
	</g>
</svg>
