<svg width="16.000000" height="16.000000" viewBox="0 0 16 16" fill="none" xmlns="http://www.w3.org/2000/svg" xmlns:xlink="http://www.w3.org/1999/xlink">
	<desc>
			Created with Pixso.
	</desc>
	<defs>
		<clipPath id="clip57_947">
			<rect width="16.000000" height="16.000000" fill="white" fill-opacity="0"/>
		</clipPath>
	</defs>
	<g clip-path="url(#clip57_947)">
		<path d="M8 4.66C8.04 4.66 8.08 4.66 8.13 4.66C8.17 4.65 8.22 4.65 8.26 4.64C8.3 4.63 8.35 4.62 8.39 4.61C8.43 4.6 8.47 4.59 8.52 4.57C8.56 4.55 8.6 4.54 8.64 4.51C8.68 4.49 8.71 4.47 8.75 4.45C8.79 4.42 8.82 4.4 8.86 4.37C8.89 4.34 8.93 4.31 8.96 4.28C8.99 4.25 9.02 4.22 9.05 4.19C9.08 4.15 9.1 4.12 9.13 4.08C9.15 4.04 9.18 4 9.2 3.97C9.22 3.93 9.24 3.89 9.26 3.85C9.27 3.81 9.29 3.76 9.3 3.72C9.32 3.68 9.33 3.64 9.33 3.59C9.34 3.55 9.35 3.51 9.35 3.46C9.36 3.42 9.36 3.37 9.36 3.33C9.36 3.28 9.36 3.24 9.35 3.2C9.35 3.15 9.34 3.11 9.33 3.06C9.33 3.02 9.32 2.98 9.3 2.94C9.29 2.89 9.27 2.85 9.26 2.81C9.24 2.77 9.22 2.73 9.2 2.69C9.18 2.65 9.15 2.61 9.13 2.58C9.1 2.54 9.08 2.51 9.05 2.47C9.02 2.44 8.99 2.4 8.96 2.37C8.93 2.34 8.89 2.31 8.86 2.29C8.82 2.26 8.79 2.23 8.75 2.21C8.71 2.18 8.68 2.16 8.64 2.14C8.6 2.12 8.56 2.1 8.52 2.09C8.47 2.07 8.43 2.06 8.39 2.04C8.35 2.03 8.3 2.02 8.26 2.01C8.22 2.01 8.17 2 8.13 2C8.08 2 8.04 1.99 8 2C7.95 2 7.91 2 7.87 2C7.82 2.01 7.78 2.02 7.74 2.03C7.7 2.04 7.66 2.05 7.62 2.06C7.57 2.07 7.53 2.09 7.49 2.11C7.46 2.12 7.42 2.14 7.38 2.16C7.34 2.18 7.31 2.21 7.27 2.23C7.23 2.26 7.2 2.28 7.17 2.31C7.13 2.34 7.1 2.37 7.07 2.4C7.04 2.43 7.01 2.46 6.99 2.49C6.96 2.53 6.94 2.56 6.91 2.6C6.89 2.63 6.87 2.67 6.85 2.71C6.83 2.75 6.81 2.79 6.79 2.83C6.78 2.87 6.76 2.91 6.75 2.95C6.74 2.99 6.73 3.03 6.72 3.07C6.71 3.11 6.7 3.16 6.7 3.2C6.7 3.24 6.69 3.29 6.69 3.33C6.69 3.37 6.7 3.41 6.7 3.46C6.7 3.5 6.71 3.54 6.72 3.58C6.73 3.63 6.74 3.67 6.75 3.71C6.76 3.75 6.78 3.79 6.79 3.83C6.81 3.87 6.83 3.91 6.85 3.95C6.87 3.99 6.89 4.02 6.91 4.06C6.94 4.09 6.96 4.13 6.99 4.16C7.01 4.2 7.04 4.23 7.07 4.26C7.1 4.29 7.13 4.32 7.17 4.35C7.2 4.38 7.23 4.4 7.27 4.43C7.31 4.45 7.34 4.47 7.38 4.49C7.42 4.51 7.46 4.53 7.49 4.55C7.53 4.57 7.57 4.58 7.62 4.6C7.66 4.61 7.7 4.62 7.74 4.63C7.78 4.64 7.82 4.65 7.87 4.65C7.91 4.66 7.95 4.66 8 4.66Z" fill="#5A5A68" fill-opacity="1.000000" fill-rule="nonzero"/>
		<path d="M6.66 8C6.66 8.04 6.66 8.08 6.67 8.13C6.67 8.17 6.68 8.21 6.69 8.26C6.7 8.3 6.71 8.34 6.72 8.38C6.73 8.42 6.75 8.46 6.76 8.51C6.78 8.55 6.8 8.59 6.82 8.62C6.84 8.66 6.86 8.7 6.89 8.74C6.91 8.77 6.94 8.81 6.96 8.84C6.99 8.87 7.02 8.91 7.05 8.94C7.08 8.97 7.12 9 7.15 9.03C7.18 9.05 7.22 9.08 7.25 9.1C7.29 9.13 7.33 9.15 7.37 9.17C7.4 9.19 7.44 9.21 7.48 9.23C7.52 9.24 7.57 9.26 7.61 9.27C7.65 9.28 7.69 9.29 7.73 9.3C7.78 9.31 7.82 9.32 7.86 9.32C7.91 9.33 7.95 9.33 8 9.33C8.04 9.33 8.08 9.33 8.13 9.32C8.17 9.32 8.21 9.31 8.26 9.3C8.3 9.29 8.34 9.28 8.38 9.27C8.42 9.26 8.46 9.24 8.51 9.23C8.55 9.21 8.59 9.19 8.62 9.17C8.66 9.15 8.7 9.13 8.74 9.1C8.77 9.08 8.81 9.05 8.84 9.03C8.87 9 8.91 8.97 8.94 8.94C8.97 8.91 9 8.87 9.03 8.84C9.05 8.81 9.08 8.77 9.1 8.74C9.13 8.7 9.15 8.66 9.17 8.62C9.19 8.59 9.21 8.55 9.23 8.51C9.24 8.46 9.26 8.42 9.27 8.38C9.28 8.34 9.29 8.3 9.3 8.26C9.31 8.21 9.32 8.17 9.32 8.13C9.33 8.08 9.33 8.04 9.33 8C9.33 7.95 9.33 7.91 9.32 7.86C9.32 7.82 9.31 7.78 9.3 7.73C9.29 7.69 9.28 7.65 9.27 7.61C9.26 7.57 9.24 7.53 9.23 7.48C9.21 7.44 9.19 7.4 9.17 7.37C9.15 7.33 9.13 7.29 9.1 7.25C9.08 7.22 9.05 7.18 9.03 7.15C9 7.12 8.97 7.08 8.94 7.05C8.91 7.02 8.87 6.99 8.84 6.96C8.81 6.94 8.77 6.91 8.74 6.89C8.7 6.86 8.66 6.84 8.62 6.82C8.59 6.8 8.55 6.78 8.51 6.76C8.46 6.75 8.42 6.73 8.38 6.72C8.34 6.71 8.3 6.7 8.26 6.69C8.21 6.68 8.17 6.67 8.13 6.67C8.08 6.66 8.04 6.66 8 6.66C7.95 6.66 7.91 6.66 7.86 6.67C7.82 6.67 7.78 6.68 7.73 6.69C7.69 6.7 7.65 6.71 7.61 6.72C7.57 6.73 7.52 6.75 7.48 6.76C7.44 6.78 7.4 6.8 7.37 6.82C7.33 6.84 7.29 6.86 7.25 6.89C7.22 6.91 7.18 6.94 7.15 6.96C7.12 6.99 7.08 7.02 7.05 7.05C7.02 7.08 6.99 7.12 6.96 7.15C6.94 7.18 6.91 7.22 6.89 7.25C6.86 7.29 6.84 7.33 6.82 7.37C6.8 7.4 6.78 7.44 6.76 7.48C6.75 7.53 6.73 7.57 6.72 7.61C6.71 7.65 6.7 7.69 6.69 7.73C6.68 7.78 6.67 7.82 6.67 7.86C6.66 7.91 6.66 7.95 6.66 8Z" fill="#5A5A68" fill-opacity="1.000000" fill-rule="nonzero"/>
		<path d="M8 14C8.04 14 8.08 13.99 8.13 13.99C8.17 13.98 8.21 13.98 8.26 13.97C8.3 13.96 8.34 13.95 8.38 13.94C8.42 13.92 8.46 13.91 8.51 13.89C8.55 13.88 8.59 13.86 8.62 13.84C8.66 13.82 8.7 13.79 8.74 13.77C8.77 13.75 8.81 13.72 8.84 13.69C8.87 13.66 8.91 13.64 8.94 13.6C8.97 13.57 9 13.54 9.03 13.51C9.05 13.47 9.08 13.44 9.1 13.4C9.13 13.37 9.15 13.33 9.17 13.29C9.19 13.25 9.21 13.21 9.23 13.17C9.24 13.13 9.26 13.09 9.27 13.05C9.28 13.01 9.29 12.96 9.3 12.92C9.31 12.88 9.32 12.84 9.32 12.79C9.33 12.75 9.33 12.71 9.33 12.66C9.33 12.62 9.33 12.57 9.32 12.53C9.32 12.49 9.31 12.44 9.3 12.4C9.29 12.36 9.28 12.32 9.27 12.27C9.26 12.23 9.24 12.19 9.23 12.15C9.21 12.11 9.19 12.07 9.17 12.03C9.15 11.99 9.13 11.96 9.1 11.92C9.08 11.88 9.05 11.85 9.03 11.82C9 11.78 8.97 11.75 8.94 11.72C8.91 11.69 8.87 11.66 8.84 11.63C8.81 11.6 8.77 11.58 8.74 11.55C8.7 11.53 8.66 11.51 8.62 11.49C8.59 11.46 8.55 11.45 8.51 11.43C8.46 11.41 8.42 11.4 8.38 11.39C8.34 11.37 8.3 11.36 8.26 11.35C8.21 11.34 8.17 11.34 8.13 11.33C8.08 11.33 8.04 11.33 8 11.33C7.95 11.33 7.91 11.33 7.86 11.33C7.82 11.34 7.78 11.34 7.73 11.35C7.69 11.36 7.65 11.37 7.61 11.39C7.57 11.4 7.52 11.41 7.48 11.43C7.44 11.45 7.4 11.46 7.37 11.49C7.33 11.51 7.29 11.53 7.25 11.55C7.22 11.58 7.18 11.6 7.15 11.63C7.12 11.66 7.08 11.69 7.05 11.72C7.02 11.75 6.99 11.78 6.96 11.82C6.94 11.85 6.91 11.88 6.89 11.92C6.86 11.96 6.84 11.99 6.82 12.03C6.8 12.07 6.78 12.11 6.76 12.15C6.75 12.19 6.73 12.23 6.72 12.27C6.71 12.32 6.7 12.36 6.69 12.4C6.68 12.44 6.67 12.49 6.67 12.53C6.66 12.57 6.66 12.62 6.66 12.66C6.66 12.71 6.66 12.75 6.67 12.79C6.67 12.84 6.68 12.88 6.69 12.92C6.7 12.96 6.71 13.01 6.72 13.05C6.73 13.09 6.75 13.13 6.76 13.17C6.78 13.21 6.8 13.25 6.82 13.29C6.84 13.33 6.86 13.37 6.89 13.4C6.91 13.44 6.94 13.47 6.96 13.51C6.99 13.54 7.02 13.57 7.05 13.6C7.08 13.64 7.12 13.66 7.15 13.69C7.18 13.72 7.22 13.75 7.25 13.77C7.29 13.79 7.33 13.82 7.37 13.84C7.4 13.86 7.44 13.88 7.48 13.89C7.52 13.91 7.57 13.92 7.61 13.94C7.65 13.95 7.69 13.96 7.73 13.97C7.78 13.98 7.82 13.98 7.86 13.99C7.91 13.99 7.95 14 8 14Z" fill="#5A5A68" fill-opacity="1.000000" fill-rule="nonzero"/>
	</g>
</svg>
