<svg width="24.000000" height="24.000000" viewBox="0 0 24 24" fill="none" xmlns="http://www.w3.org/2000/svg" xmlns:xlink="http://www.w3.org/1999/xlink">
	<desc>
			Created with Pixso.
	</desc>
	<defs>
		<clipPath id="clip57_939">
			<rect width="24.000000" height="24.000000" fill="white" fill-opacity="0"/>
		</clipPath>
	</defs>
	<g clip-path="url(#clip57_939)">
		<path d="M22.03 20.21L20.88 20.21L20.88 7.1C20.88 6.72 20.65 6.38 20.3 6.21L14.55 3.21C14.23 3.07 13.87 3.07 13.54 3.21C13.18 3.36 12.96 3.7 12.97 5.6L12.97 21.72L11.82 21.72L11.82 4C11.82 2.06 11.82 1.77 11.38 1.62C11.01 1.46 10.6 1.46 10.23 1.62L3.65 5.08C3.31 5.25 3.08 5.61 3.08 6L3.08 20.23L1.93 20.23C1.64 20.23 1.5 20.38 1.5 20.53L1.5 22.2C1.5 22.34 1.64 22.5 1.93 22.5L22.03 22.5C22.16 22.5 22.44 22.34 22.46 22.2L22.46 20.54C22.5 20.36 22.18 20.21 22.03 20.21ZM8.53 18.1C8.53 18.27 8.4 18.4 8.23 18.4L6.61 18.4C6.44 18.4 6.31 18.27 6.31 18.1L6.31 16.7C6.31 16.53 6.44 16.4 6.61 16.4L8.26 16.4C8.43 16.4 8.56 16.53 8.56 16.7L8.53 18.1ZM8.53 13.87C8.53 14.04 8.4 14.17 8.23 14.17L6.61 14.17C6.44 14.17 6.31 14.04 6.31 13.87L6.31 12.44C6.31 12.27 6.44 12.14 6.61 12.14L8.26 12.14C8.43 12.14 8.56 12.27 8.56 12.44L8.53 13.87ZM8.53 9.64C8.53 9.81 8.4 9.94 8.23 9.94L6.61 9.94C6.44 9.94 6.31 9.81 6.31 9.64L6.31 8.2C6.31 8.04 6.44 7.9 6.61 7.9L8.26 7.9C8.43 7.9 8.56 8.04 8.56 8.2L8.53 9.64ZM18 18.09C18 18.26 17.86 18.39 17.7 18.39L16.04 18.39C15.87 18.39 15.74 18.26 15.74 18.09L15.74 16.68C15.74 16.51 15.87 16.37 16.04 16.37L17.7 16.37C17.86 16.37 18 16.51 18 16.68L18 18.09ZM18 13.86C18 14.02 17.86 14.16 17.7 14.16L16.04 14.16C15.87 14.16 15.74 14.02 15.74 13.86L15.74 12.44C15.74 12.27 15.87 12.14 16.04 12.14L17.7 12.14C17.86 12.14 18 12.27 18 12.44L18 13.86ZM18 9.63C18 9.8 17.86 9.93 17.7 9.93L16.04 9.93C15.87 9.93 15.74 9.8 15.74 9.63L15.74 8.2C15.74 8.04 15.87 7.9 16.04 7.9L17.7 7.9C17.86 7.9 18 8.04 18 8.2L18 9.63Z" fill="#0A59F7" fill-opacity="1.000000" fill-rule="nonzero"/>
	</g>
</svg>
