<svg width="24.000000" height="24.000000" viewBox="0 0 24 24" fill="none" xmlns="http://www.w3.org/2000/svg" xmlns:xlink="http://www.w3.org/1999/xlink">
	<desc>
			Created with Pixso.
	</desc>
	<defs>
		<clipPath id="clip186_2232">
			<rect width="24.000000" height="24.000000" fill="white" fill-opacity="0"/>
		</clipPath>
	</defs>
	<g clip-path="url(#clip186_2232)">
		<path d="M12 0.91C11.7 0.91 11.46 1 11.29 1.18C11.11 1.36 10.97 1.58 10.88 1.83L8.13 8.19L0.74 8.85C0.57 8.88 0.41 8.96 0.27 9.09C0.12 9.21 0.03 9.39 0 9.61C-0.03 9.83 0.02 10.05 0.16 10.26C0.29 10.47 0.46 10.66 0.65 10.84L0.91 11.06L1.52 11.59C1.77 11.8 2.05 12.04 2.36 12.3L3.3 13.09C4.05 13.72 4.89 14.44 5.84 15.25L5.02 18.57C4.91 18.99 4.8 19.41 4.7 19.82C4.6 20.23 4.5 20.61 4.42 20.95C4.34 21.29 4.27 21.58 4.21 21.82L4.09 22.29C4.06 22.43 4.07 22.57 4.14 22.7C4.2 22.83 4.3 22.95 4.44 23.04C4.57 23.14 4.72 23.2 4.89 23.22C4.93 23.23 4.96 23.23 5 23.23C5.13 23.23 5.26 23.2 5.38 23.14C5.46 23.11 5.62 23.03 5.85 22.9C6.08 22.78 6.35 22.62 6.67 22.43C6.99 22.24 7.35 22.03 7.74 21.81C8.13 21.59 8.52 21.37 8.92 21.15C9.84 20.63 10.87 20.03 12 19.37L18.24 22.97L18.59 23.1C18.74 23.16 18.85 23.19 18.93 23.19C19.17 23.19 19.39 23.13 19.58 23.03C19.77 22.93 19.84 22.72 19.79 22.4C19.78 22.34 19.75 22.19 19.7 21.94L19.52 21.05C19.45 20.7 19.37 20.32 19.29 19.89C19.21 19.47 19.12 19.04 19.03 18.61C18.82 17.6 18.59 16.47 18.31 15.23L23.26 10.82C23.47 10.58 23.64 10.38 23.78 10.21C23.91 10.04 23.98 9.85 23.98 9.63C23.98 9.4 23.92 9.22 23.79 9.11C23.66 9 23.44 8.91 23.12 8.83L15.73 8.14L13.06 1.79C13.02 1.72 12.98 1.65 12.92 1.55C12.87 1.46 12.8 1.36 12.72 1.27C12.64 1.17 12.54 1.09 12.42 1.02C12.3 0.95 12.16 0.91 12 0.91Z" fill="#ED6F21" fill-opacity="1.000000" fill-rule="nonzero"/>
	</g>
</svg>
